<svg width="260" height="247" viewBox="0 0 260 247" fill="none" xmlns="http://www.w3.org/2000/svg">
<g clip-path="url(#clip0_397_390)">
<path d="M115.2 15.0798C115.16 15.1543 115.141 15.2377 115.143 15.322C115.145 15.4063 115.169 15.4886 115.212 15.561C115.255 15.6335 115.316 15.6935 115.39 15.7353C115.463 15.7771 115.546 15.7993 115.63 15.7998L131.97 15.8598C132.055 15.8611 132.139 15.8401 132.214 15.799C132.288 15.7579 132.351 15.6981 132.395 15.6254C132.44 15.5527 132.465 15.4697 132.467 15.3845C132.47 15.2994 132.45 15.215 132.41 15.1398L124.29 -0.250203C124.249 -0.329902 124.186 -0.396715 124.109 -0.44335C124.033 -0.489985 123.945 -0.514648 123.855 -0.514648C123.765 -0.514648 123.677 -0.489985 123.6 -0.44335C123.524 -0.396715 123.461 -0.329902 123.42 -0.250203L115.2 15.0798Z" stroke="#F5DABD" stroke-width="2"/>
<path d="M76.9505 9.09991C76.8459 9.02227 76.7229 8.97322 76.5935 8.95758C76.4642 8.94193 76.3331 8.96024 76.213 9.0107C76.0929 9.06116 75.988 9.14203 75.9086 9.24535C75.8293 9.34866 75.7782 9.47086 75.7605 9.59991L73.5805 26.6099C73.5635 26.7403 73.5811 26.8729 73.6316 26.9943C73.682 27.1157 73.7634 27.2218 73.8678 27.3018C73.9721 27.3818 74.0956 27.433 74.226 27.4502C74.3564 27.4675 74.489 27.4501 74.6105 27.3999L90.6705 20.8099C90.7926 20.7598 90.8993 20.6783 90.9798 20.5736C91.0604 20.469 91.1118 20.345 91.1291 20.2141C91.1463 20.0833 91.1287 19.9502 91.0781 19.8283C91.0274 19.7064 90.9454 19.6 90.8405 19.5199L76.9505 9.09991Z" stroke="#F5DABD" stroke-width="2"/>
<path d="M172.67 26.8694C172.722 26.8905 172.777 26.8979 172.832 26.8909C172.887 26.8839 172.94 26.8627 172.984 26.8295C173.028 26.7962 173.063 26.752 173.086 26.7011C173.108 26.6502 173.116 26.5945 173.11 26.5394L170.78 8.80937C170.773 8.75247 170.752 8.69845 170.717 8.65293C170.682 8.60742 170.636 8.57208 170.582 8.55063C170.529 8.52917 170.471 8.52237 170.415 8.53095C170.358 8.53952 170.305 8.56315 170.26 8.59937L156.51 19.4294C156.468 19.4645 156.436 19.5098 156.416 19.561C156.397 19.6122 156.391 19.6676 156.399 19.7218C156.407 19.776 156.429 19.8272 156.462 19.8706C156.496 19.9139 156.54 19.9479 156.59 19.9694L172.67 26.8694Z" stroke="#F5DABD" stroke-width="2"/>
<path d="M126.553 29.1743C126.558 28.811 126.418 28.4606 126.165 28.2001C125.912 27.9396 125.565 27.7904 125.202 27.7853L118.763 27.6954C118.399 27.6904 118.049 27.8298 117.789 28.0831C117.528 28.3364 117.379 28.6828 117.374 29.0461L117.287 35.2455C117.282 35.6089 117.422 35.9593 117.675 36.2198C117.928 36.4803 118.275 36.6295 118.638 36.6345L125.077 36.7244C125.441 36.7295 125.791 36.5901 126.052 36.3368C126.312 36.0835 126.461 35.7371 126.466 35.3737L126.553 29.1743Z" stroke="#F5DABD" stroke-width="2"/>
<path d="M90.8619 34.4844C90.6709 34.0673 90.322 33.743 89.892 33.5831C89.4619 33.4232 88.986 33.4406 88.5688 33.6316L83.4952 35.9544C83.2886 36.049 83.1027 36.1833 82.948 36.3498C82.7934 36.5162 82.673 36.7114 82.5938 36.9244C82.5147 37.1373 82.4782 37.3638 82.4865 37.5908C82.4948 37.8179 82.5478 38.041 82.6424 38.2476L84.8987 43.1756C85.0897 43.5928 85.4386 43.917 85.8686 44.0769C86.2987 44.2369 86.7746 44.2194 87.1918 44.0284L92.2654 41.7056C92.472 41.611 92.6579 41.4767 92.8125 41.3103C92.9672 41.1438 93.0876 40.9486 93.1667 40.7356C93.2459 40.5227 93.2824 40.2962 93.2741 40.0692C93.2657 39.8422 93.2128 39.619 93.1182 39.4124L90.8619 34.4844Z" stroke="#F5DABD" stroke-width="2"/>
<path d="M161.97 38.1506C162.043 37.9832 162.082 37.8031 162.085 37.6206C162.088 37.438 162.055 37.2567 161.988 37.0868C161.922 36.917 161.822 36.762 161.695 36.6307C161.568 36.4994 161.417 36.3943 161.249 36.3216L155.6 33.8653C155.262 33.7183 154.88 33.7116 154.537 33.8467C154.194 33.9818 153.918 34.2476 153.771 34.5857L151.291 40.2898C151.218 40.4572 151.179 40.6373 151.176 40.8198C151.173 41.0023 151.206 41.1837 151.273 41.3535C151.339 41.5233 151.439 41.6783 151.566 41.8096C151.693 41.9409 151.844 42.046 152.012 42.1188L157.661 44.5751C157.999 44.722 158.381 44.7287 158.724 44.5936C159.067 44.4585 159.343 44.1927 159.49 43.8547L161.97 38.1506Z" stroke="#F5DABD" stroke-width="2"/>
<path d="M210.42 37.1498C210.461 37.0115 210.464 36.8649 210.429 36.7251C210.394 36.5852 210.322 36.4573 210.222 36.3543C210.121 36.2514 209.994 36.1773 209.855 36.1395C209.716 36.1018 209.569 36.1019 209.43 36.1398L193.76 40.3698C193.621 40.4068 193.494 40.4803 193.393 40.5826C193.291 40.685 193.219 40.8126 193.183 40.9522C193.148 41.0917 193.15 41.2383 193.19 41.3768C193.23 41.5152 193.306 41.6406 193.41 41.7398L204.73 52.5198C204.831 52.6142 204.954 52.6812 205.088 52.7146C205.222 52.7479 205.362 52.7465 205.496 52.7105C205.629 52.6744 205.751 52.6049 205.849 52.5085C205.948 52.4121 206.021 52.2921 206.06 52.1598L210.42 37.1498Z" stroke="#F5DABD" stroke-width="2"/>
<path d="M54.1402 41.1803C54.1848 41.1374 54.2173 41.0835 54.2343 41.024C54.2513 40.9645 54.2522 40.9016 54.2369 40.8416C54.2217 40.7816 54.1908 40.7268 54.1475 40.6826C54.1041 40.6385 54.0498 40.6066 53.9902 40.5903L37.3802 36.1403C37.3196 36.1231 37.2554 36.1225 37.1945 36.1387C37.1337 36.1549 37.0783 36.1873 37.0343 36.2323C36.9902 36.2774 36.9592 36.3335 36.9444 36.3947C36.9296 36.456 36.9316 36.5201 36.9502 36.5803L41.5902 52.4903C41.607 52.5469 41.638 52.5984 41.6801 52.6399C41.7222 52.6813 41.7741 52.7115 41.831 52.7274C41.888 52.7434 41.948 52.7447 42.0055 52.7312C42.0631 52.7177 42.1163 52.6899 42.1602 52.6503L54.1402 41.1803Z" stroke="#F5DABD" stroke-width="2"/>
<path d="M131.77 55.6303C131.77 53.6146 130.97 51.6815 129.544 50.2563C128.119 48.831 126.186 48.0303 124.17 48.0303C122.155 48.0303 120.222 48.831 118.796 50.2563C117.371 51.6815 116.57 53.6146 116.57 55.6303C116.57 57.6459 117.371 59.579 118.796 61.0043C120.222 62.4296 122.155 63.2303 124.17 63.2303C126.186 63.2303 128.119 62.4296 129.544 61.0043C130.97 59.579 131.77 57.6459 131.77 55.6303Z" stroke="#F5DABD" stroke-width="2"/>
<path d="M106.82 60.0502C106.82 58.0345 106.019 56.1015 104.594 54.6762C103.169 53.2509 101.236 52.4502 99.2201 52.4502C97.2045 52.4502 95.2714 53.2509 93.8461 54.6762C92.4208 56.1015 91.6201 58.0345 91.6201 60.0502C91.6201 61.0482 91.8167 62.0365 92.1986 62.9586C92.5806 63.8807 93.1404 64.7185 93.8461 65.4242C94.5518 66.1299 95.3896 66.6897 96.3117 67.0717C97.2338 67.4536 98.2221 67.6502 99.2201 67.6502C100.218 67.6502 101.206 67.4536 102.129 67.0717C103.051 66.6897 103.888 66.1299 104.594 65.4242C105.3 64.7185 105.86 63.8807 106.242 62.9586C106.624 62.0365 106.82 61.0482 106.82 60.0502Z" stroke="#F5DABD" stroke-width="2"/>
<path d="M59.4639 53.1521C59.1793 52.8666 58.793 52.7058 58.3898 52.7051C57.9867 52.7044 57.5998 52.8639 57.3143 53.1484L53.0926 57.3554C52.807 57.64 52.6462 58.0263 52.6455 58.4295C52.6448 58.8326 52.8043 59.2195 53.0889 59.505L57.2959 63.7267C57.5804 64.0123 57.9668 64.1731 58.3699 64.1738C58.773 64.1745 59.1599 64.015 59.4455 63.7304L63.6672 59.5234C63.9527 59.2389 64.1135 58.8525 64.1142 58.4494C64.1149 58.0463 63.9554 57.6594 63.6709 57.3738L59.4639 53.1521Z" stroke="#F5DABD" stroke-width="2"/>
<path d="M190.518 59.7059C190.821 59.4016 190.991 58.9892 190.99 58.5596C190.99 58.13 190.818 57.7182 190.514 57.4149L186.476 53.3914C186.172 53.0881 185.76 52.9182 185.33 52.9189C184.9 52.9197 184.489 53.0911 184.185 53.3954L180.162 57.4329C179.859 57.7373 179.689 58.1496 179.689 58.5793C179.69 59.0089 179.862 59.4206 180.166 59.7239L184.203 63.7474C184.508 64.0507 184.92 64.2206 185.35 64.2199C185.779 64.2191 186.191 64.0478 186.494 63.7434L190.518 59.7059Z" stroke="#F5DABD" stroke-width="2"/>
<path d="M156.094 56.0614C154.827 54.5414 152.978 53.6123 150.953 53.4786C148.928 53.3449 146.893 54.0175 145.295 55.3485C144.504 56.0075 143.844 56.8084 143.354 57.7053C142.863 58.6022 142.551 59.5776 142.435 60.5758C142.319 61.574 142.401 62.5755 142.678 63.5231C142.955 64.4707 143.42 65.3458 144.047 66.0984C145.314 67.6185 147.163 68.5475 149.188 68.6812C151.213 68.8149 153.248 68.1423 154.846 66.8113C155.637 66.1523 156.296 65.3514 156.787 64.4545C157.278 63.5576 157.59 62.5822 157.706 61.584C157.822 60.5858 157.739 59.5843 157.463 58.6367C157.186 57.6892 156.721 56.8141 156.094 56.0614Z" stroke="#F5DABD" stroke-width="2"/>
<path d="M81.2834 80.4342C82.0717 79.8615 82.7341 79.1315 83.2326 78.2861C83.7311 77.4406 84.056 76.4962 84.1888 75.5067C84.3215 74.5172 84.2596 73.5021 84.0064 72.5193C83.7533 71.5365 83.3139 70.6052 82.7133 69.7786C82.1128 68.9521 81.3629 68.2464 80.5064 67.7019C79.6499 67.1575 78.7036 66.7848 77.7215 66.6054C76.7395 66.4259 75.7409 66.4431 74.7827 66.6559C73.8246 66.8687 72.9257 67.2731 72.1374 67.8458C71.3491 68.4186 70.6868 69.1485 70.1883 69.994C69.6898 70.8394 69.3649 71.7839 69.2321 72.7733C69.0993 73.7628 69.1613 74.7779 69.4144 75.7607C69.6676 76.7436 70.107 77.6749 70.7075 78.5014C71.3081 79.328 72.058 80.0336 72.9145 80.5781C73.771 81.1226 74.7173 81.4952 75.6993 81.6747C76.6814 81.8541 77.68 81.837 78.6381 81.6241C79.5962 81.4113 80.4951 81.007 81.2834 80.4342Z" stroke="#F5DABD" stroke-width="2"/>
<path d="M176.279 70.6222C174.927 69.1776 173.022 68.3608 170.985 68.3516C168.947 68.3424 166.943 69.1415 165.413 70.5731C164.656 71.282 164.037 72.1248 163.594 73.0534C163.15 73.9821 162.889 74.9783 162.827 75.9854C162.765 76.9924 162.902 77.9905 163.23 78.9227C163.559 79.8548 164.073 80.7027 164.742 81.418C166.094 82.8627 167.998 83.6794 170.036 83.6886C172.073 83.6978 174.078 82.8987 175.607 81.4671C176.365 80.7583 176.983 79.9155 177.427 78.9868C177.871 78.0582 178.131 77.0619 178.193 76.0549C178.256 75.0478 178.119 74.0497 177.79 73.1176C177.462 72.1855 176.948 71.3375 176.279 70.6222Z" stroke="#F5DABD" stroke-width="2"/>
<path d="M236.6 75.5498C236.655 75.4793 236.691 75.3955 236.704 75.3068C236.716 75.2181 236.705 75.1276 236.672 75.0444C236.638 74.9613 236.584 74.8884 236.513 74.8332C236.443 74.778 236.359 74.7423 236.27 74.7298L219.68 72.6298C219.591 72.6188 219.5 72.6316 219.417 72.6669C219.334 72.7022 219.263 72.7588 219.209 72.8309C219.155 72.903 219.121 72.9881 219.111 73.0774C219.1 73.1668 219.114 73.2573 219.15 73.3398L225.7 88.1998C225.735 88.2809 225.791 88.3515 225.862 88.4045C225.933 88.4576 226.016 88.4913 226.104 88.5024C226.191 88.5135 226.281 88.5016 226.362 88.4678C226.444 88.434 226.516 88.3796 226.57 88.3098L236.6 75.5498Z" stroke="#F5DABD" stroke-width="2"/>
<path d="M19.7704 89.5394C19.879 89.6812 20.0231 89.7916 20.1882 89.8595C20.3533 89.9273 20.5334 89.9502 20.7103 89.9259C20.8871 89.9015 21.0543 89.8306 21.1949 89.7206C21.3354 89.6106 21.4443 89.4653 21.5104 89.2995L27.3004 75.1094C27.3691 74.9451 27.3931 74.7656 27.37 74.589C27.3469 74.4124 27.2775 74.245 27.1689 74.1039C27.0602 73.9627 26.9162 73.8529 26.7514 73.7853C26.5866 73.7178 26.4068 73.6951 26.2304 73.7195L10.9904 75.7794C10.8148 75.8036 10.6486 75.8736 10.5086 75.9823C10.3686 76.0911 10.2597 76.2348 10.1928 76.3989C10.1259 76.5631 10.1034 76.742 10.1276 76.9176C10.1517 77.0933 10.2217 77.2594 10.3304 77.3995L19.7704 89.5394Z" stroke="#F5DABD" stroke-width="2"/>
<path d="M128.58 79.2897C128.58 78.6515 128.455 78.0195 128.21 77.4298C127.966 76.8402 127.608 76.3044 127.157 75.8531C126.706 75.4019 126.17 75.0439 125.58 74.7996C124.991 74.5554 124.359 74.4297 123.72 74.4297C122.431 74.4297 121.195 74.9417 120.284 75.8531C119.372 76.7646 118.86 78.0007 118.86 79.2897C118.86 80.5786 119.372 81.8148 120.284 82.7262C121.195 83.6377 122.431 84.1497 123.72 84.1497C124.359 84.1497 124.991 84.024 125.58 83.7797C126.17 83.5355 126.706 83.1775 127.157 82.7262C127.608 82.2749 127.966 81.7392 128.21 81.1495C128.455 80.5599 128.58 79.9279 128.58 79.2897Z" stroke="#F5DABD" stroke-width="2"/>
<path d="M112.531 82.0997C112.531 80.8055 112.016 79.5642 111.101 78.649C110.186 77.7339 108.945 77.2197 107.651 77.2197C106.356 77.2197 105.115 77.7339 104.2 78.649C103.285 79.5642 102.771 80.8055 102.771 82.0997C102.771 82.7406 102.897 83.3752 103.142 83.9672C103.387 84.5593 103.747 85.0973 104.2 85.5504C104.653 86.0036 105.191 86.363 105.783 86.6083C106.375 86.8535 107.01 86.9797 107.651 86.9797C108.291 86.9797 108.926 86.8535 109.518 86.6083C110.11 86.363 110.648 86.0036 111.101 85.5504C111.554 85.0973 111.914 84.5593 112.159 83.9672C112.404 83.3752 112.531 82.7406 112.531 82.0997Z" stroke="#F5DABD" stroke-width="2"/>
<path d="M137.558 87.0137C138.065 87.366 138.643 87.606 139.258 87.7202C139.873 87.8343 140.514 87.8204 141.143 87.679C141.773 87.5377 142.379 87.2718 142.928 86.8965C143.476 86.5212 143.956 86.0439 144.34 85.4918C144.724 84.9397 145.004 84.3236 145.164 83.6787C145.325 83.0338 145.363 82.3727 145.276 81.7333C145.189 81.0938 144.979 80.4884 144.657 79.9516C144.336 79.4149 143.909 78.9574 143.403 78.6051C142.896 78.2528 142.318 78.0128 141.703 77.8986C141.088 77.7845 140.447 77.7984 139.818 77.9398C139.188 78.0811 138.582 78.347 138.033 78.7223C137.485 79.0975 137.005 79.5749 136.621 80.127C136.237 80.6791 135.957 81.2952 135.797 81.9401C135.636 82.585 135.598 83.2461 135.685 83.8855C135.772 84.525 135.982 85.1304 136.304 85.6672C136.625 86.2039 137.052 86.6614 137.558 87.0137Z" stroke="#F5DABD" stroke-width="2"/>
<path d="M44.3371 86.4167C44.4249 86.2186 44.4729 86.0051 44.4782 85.7885C44.4835 85.5719 44.4461 85.3563 44.3681 85.1541C44.29 84.952 44.173 84.7672 44.0236 84.6102C43.8741 84.4533 43.6952 84.3274 43.4971 84.2396L38.359 81.9628C37.959 81.7855 37.5048 81.7744 37.0966 81.9319C36.6883 82.0894 36.3593 82.4027 36.182 82.8028L33.8241 88.1237C33.7363 88.3218 33.6884 88.5352 33.6831 88.7519C33.6778 88.9685 33.7152 89.184 33.7932 89.3862C33.8712 89.5884 33.9883 89.7732 34.1377 89.9301C34.2872 90.087 34.466 90.213 34.6641 90.3008L39.8022 92.5776C40.2023 92.7549 40.6564 92.766 41.0647 92.6084C41.473 92.4509 41.8019 92.1376 41.9792 91.7376L44.3371 86.4167Z" stroke="#F5DABD" stroke-width="2"/>
<path d="M207.806 83.5624C207.666 83.2186 207.395 82.9447 207.052 82.8008C206.71 82.6569 206.325 82.6549 205.981 82.7952L200.37 85.0849C200.026 85.2252 199.752 85.4963 199.608 85.8386C199.465 86.1809 199.463 86.5663 199.603 86.9101L201.915 92.5764C202.056 92.9202 202.327 93.1941 202.669 93.338C203.011 93.4819 203.397 93.4839 203.74 93.3436L209.351 91.0539C209.695 90.9136 209.969 90.6425 210.113 90.3002C210.257 89.9579 210.259 89.5725 210.118 89.2287L207.806 83.5624Z" stroke="#F5DABD" stroke-width="2"/>
<path d="M97.2903 94.129C97.6476 93.6225 97.8951 93.046 98.0187 92.4323C98.1422 91.8187 98.1394 91.1799 98.0104 90.5525C97.8814 89.9252 97.6287 89.3214 97.2667 88.7758C96.9048 88.2302 96.4407 87.7534 95.9009 87.3726C94.8108 86.6036 93.4787 86.2725 92.1977 86.452C90.9166 86.6316 89.7915 87.3071 89.0699 88.33C88.7126 88.8365 88.4651 89.4131 88.3416 90.0267C88.218 90.6404 88.2209 91.2791 88.3499 91.9065C88.4789 92.5339 88.7316 93.1376 89.0935 93.6833C89.4555 94.2289 89.9196 94.7057 90.4593 95.0864C91.5494 95.8554 92.8815 96.1866 94.1626 96.007C95.4436 95.8275 96.5687 95.1519 97.2903 94.129Z" stroke="#F5DABD" stroke-width="2"/>
<path d="M67.5234 100.693C68.23 100.02 68.7902 99.2069 69.172 98.3007C69.5538 97.3944 69.7497 96.4125 69.7486 95.4108C69.7475 94.4091 69.5493 93.4074 69.1654 92.4629C68.7815 91.5183 68.2194 90.6494 67.5112 89.9057C66.081 88.4038 64.1424 87.5032 62.122 87.4021C60.1016 87.301 58.1649 88.0076 56.7379 89.3666C56.0313 90.0395 55.4711 90.8522 55.0893 91.7585C54.7075 92.6647 54.5116 93.6467 54.5127 94.6484C54.5138 95.65 54.712 96.6517 55.0959 97.5963C55.4798 98.5409 56.0419 99.4098 56.7501 100.153C58.1803 101.655 60.1189 102.556 62.1393 102.657C64.1597 102.758 66.0964 102.052 67.5234 100.693Z" stroke="#F5DABD" stroke-width="2"/>
<path d="M157.881 89.0332C157.494 88.5437 157.009 88.1401 156.452 87.8454C155.895 87.5507 155.278 87.3708 154.636 87.3158C153.994 87.2609 153.34 87.3321 152.71 87.5252C152.08 87.7184 151.488 88.0298 150.966 88.4416C150.445 88.8535 150.004 89.3577 149.671 89.9255C149.337 90.4933 149.116 91.1136 149.02 91.751C148.925 92.3884 148.957 93.0303 149.115 93.6402C149.272 94.25 149.552 94.8159 149.939 95.3054C150.326 95.795 150.811 96.1986 151.368 96.4933C151.925 96.7879 152.542 96.9679 153.184 97.0228C153.826 97.0777 154.481 97.0066 155.11 96.8134C155.74 96.6203 156.333 96.3089 156.854 95.897C157.376 95.4852 157.816 94.981 158.15 94.4131C158.483 93.8453 158.704 93.225 158.8 92.5876C158.895 91.9503 158.863 91.3083 158.705 90.6985C158.548 90.0886 158.268 89.5227 157.881 89.0332Z" stroke="#F5DABD" stroke-width="2"/>
<path d="M192.761 98.4198C192.761 96.4095 191.962 94.4815 190.54 93.06C189.119 91.6384 187.191 90.8398 185.181 90.8398C184.185 90.8398 183.199 91.0359 182.28 91.4168C181.36 91.7978 180.525 92.3561 179.821 93.06C179.117 93.7638 178.558 94.5995 178.178 95.5191C177.797 96.4388 177.601 97.4244 177.601 98.4198C177.601 99.4153 177.797 100.401 178.178 101.321C178.558 102.24 179.117 103.076 179.821 103.78C180.525 104.484 181.36 105.042 182.28 105.423C183.199 105.804 184.185 106 185.181 106C187.191 106 189.119 105.201 190.54 103.78C191.962 102.358 192.761 100.43 192.761 98.4198Z" stroke="#F5DABD" stroke-width="2"/>
<path d="M101.5 132.45C101.501 132.829 101.602 133.201 101.794 133.527C101.985 133.854 102.26 134.124 102.59 134.31L122.51 145.57C122.834 145.753 123.2 145.848 123.571 145.846C123.943 145.844 124.308 145.746 124.63 145.56L144.18 134.35C144.505 134.163 144.775 133.893 144.962 133.568C145.15 133.244 145.249 132.875 145.25 132.5L145.32 110.17C145.32 109.792 145.22 109.421 145.031 109.095C144.841 108.768 144.568 108.497 144.24 108.31L124.46 96.9802C124.137 96.7961 123.772 96.6992 123.4 96.6992C123.028 96.6992 122.663 96.7961 122.34 96.9802L102.59 108.22C102.262 108.407 101.989 108.678 101.799 109.005C101.61 109.331 101.51 109.702 101.51 110.08L101.5 132.45Z" stroke="#F5DABD" stroke-width="2"/>
<path d="M87.0465 108.491C88.0038 107.655 88.5735 106.455 88.6303 105.154C88.6872 103.853 88.2264 102.557 87.3495 101.551C86.9153 101.054 86.3919 100.642 85.8093 100.341C85.2268 100.039 84.5964 99.853 83.9541 99.7934C83.3119 99.7338 82.6704 99.8017 82.0663 99.9933C81.4622 100.185 80.9073 100.496 80.4333 100.91C79.476 101.745 78.9062 102.945 78.8494 104.246C78.7926 105.548 79.2533 106.844 80.1303 107.849C80.5645 108.347 81.0879 108.758 81.6704 109.06C82.253 109.361 82.8834 109.547 83.5256 109.607C84.1679 109.667 84.8093 109.599 85.4135 109.407C86.0176 109.216 86.5725 108.904 87.0465 108.491Z" stroke="#F5DABD" stroke-width="2"/>
<path d="M167.99 106.86C167.99 105.563 167.475 104.319 166.558 103.402C165.641 102.485 164.397 101.97 163.1 101.97C161.803 101.97 160.559 102.485 159.642 103.402C158.725 104.319 158.21 105.563 158.21 106.86C158.21 108.157 158.725 109.4 159.642 110.317C160.559 111.235 161.803 111.75 163.1 111.75C164.397 111.75 165.641 111.235 166.558 110.317C167.475 109.4 167.99 108.157 167.99 106.86Z" stroke="#F5DABD" stroke-width="2"/>
<path d="M64.0906 121.28C64.0906 120.279 63.8935 119.289 63.5105 118.364C63.1276 117.44 62.5663 116.6 61.8587 115.892C61.1512 115.184 60.3111 114.623 59.3866 114.24C58.4621 113.857 57.4713 113.66 56.4706 113.66C54.4496 113.66 52.5115 114.463 51.0824 115.892C49.6534 117.321 48.8506 119.259 48.8506 121.28C48.8506 122.281 49.0477 123.272 49.4306 124.196C49.8136 125.121 50.3749 125.961 51.0824 126.668C51.79 127.376 52.63 127.937 53.5545 128.32C54.479 128.703 55.4699 128.9 56.4706 128.9C57.4713 128.9 58.4621 128.703 59.3866 128.32C60.3111 127.937 61.1512 127.376 61.8587 126.668C62.5663 125.961 63.1276 125.121 63.5105 124.196C63.8935 123.272 64.0906 122.281 64.0906 121.28Z" stroke="#F5DABD" stroke-width="2"/>
<path d="M15.8502 131.57C15.9412 131.62 16.0436 131.646 16.1475 131.645C16.2514 131.643 16.3532 131.615 16.4429 131.563C16.5327 131.51 16.6072 131.435 16.6593 131.345C16.7115 131.256 16.7393 131.154 16.7402 131.05L16.8602 114.95C16.8628 114.844 16.8375 114.74 16.7869 114.647C16.7362 114.554 16.662 114.477 16.5717 114.422C16.4814 114.367 16.3782 114.337 16.2726 114.335C16.167 114.333 16.0627 114.359 15.9702 114.41L1.09024 122.36C0.99399 122.411 0.913468 122.487 0.857311 122.581C0.801155 122.674 0.771484 122.781 0.771484 122.89C0.771484 122.999 0.801155 123.106 0.857311 123.199C0.913468 123.292 0.99399 123.369 1.09024 123.42L15.8502 131.57Z" stroke="#F5DABD" stroke-width="2"/>
<path d="M230.41 130.959C230.404 131.11 230.438 131.259 230.51 131.391C230.581 131.523 230.687 131.634 230.815 131.712C230.944 131.789 231.091 131.831 231.242 131.832C231.392 131.834 231.54 131.795 231.67 131.719L245.84 123.729C245.969 123.656 246.076 123.55 246.15 123.422C246.225 123.293 246.264 123.148 246.264 122.999C246.264 122.851 246.225 122.705 246.15 122.577C246.076 122.449 245.969 122.343 245.84 122.269L232.18 114.589C232.054 114.517 231.912 114.478 231.767 114.477C231.621 114.475 231.478 114.512 231.351 114.582C231.225 114.653 231.118 114.755 231.042 114.879C230.967 115.003 230.925 115.144 230.92 115.289L230.41 130.959Z" stroke="#F5DABD" stroke-width="2"/>
<path d="M196.573 120.505C196.186 119.593 195.621 118.768 194.91 118.076C194.199 117.384 193.356 116.839 192.43 116.471C191.503 116.104 190.511 115.922 189.509 115.935C188.508 115.949 187.517 116.157 186.594 116.549C185.67 116.941 184.832 117.509 184.127 118.22C183.422 118.931 182.863 119.771 182.484 120.693C182.104 121.615 181.911 122.6 181.915 123.592C181.919 124.584 182.12 125.564 182.507 126.475C182.894 127.387 183.459 128.212 184.17 128.904C184.881 129.596 185.724 130.141 186.65 130.509C187.577 130.876 188.569 131.058 189.57 131.045C190.572 131.031 191.562 130.823 192.486 130.431C193.41 130.039 194.248 129.471 194.953 128.76C195.658 128.049 196.217 127.209 196.596 126.287C196.975 125.365 197.169 124.38 197.165 123.388C197.161 122.396 196.959 121.416 196.573 120.505Z" stroke="#F5DABD" stroke-width="2"/>
<path d="M84.9998 121.56C84.9998 120.274 84.4888 119.04 83.5793 118.13C82.6697 117.221 81.4361 116.71 80.1498 116.71C78.8635 116.71 77.6299 117.221 76.7203 118.13C75.8108 119.04 75.2998 120.274 75.2998 121.56C75.2998 122.846 75.8108 124.08 76.7203 124.989C77.6299 125.899 78.8635 126.41 80.1498 126.41C81.4361 126.41 82.6697 125.899 83.5793 124.989C84.4888 124.08 84.9998 122.846 84.9998 121.56Z" stroke="#F5DABD" stroke-width="2"/>
<path d="M36.6879 118.444C36.6874 118.309 36.6603 118.175 36.6081 118.05C36.5559 117.926 36.4797 117.812 36.3837 117.717C36.2877 117.622 36.1739 117.546 36.0488 117.495C35.9236 117.444 35.7896 117.418 35.6543 117.418L28.7344 117.442C28.5992 117.443 28.4653 117.47 28.3405 117.522C28.2157 117.574 28.1025 117.65 28.0071 117.746C27.9118 117.842 27.8364 117.956 27.785 118.081C27.7337 118.206 27.7075 118.341 27.708 118.476L27.7323 125.436C27.7328 125.571 27.7599 125.705 27.8121 125.83C27.8643 125.954 27.9406 126.068 28.0365 126.163C28.1325 126.258 28.2463 126.334 28.3715 126.385C28.4966 126.436 28.6307 126.463 28.7659 126.462L35.6858 126.438C35.8211 126.438 35.9549 126.41 36.0797 126.358C36.2045 126.306 36.3178 126.23 36.4131 126.134C36.5084 126.038 36.5839 125.924 36.6352 125.799C36.6865 125.674 36.7127 125.54 36.7122 125.404L36.6879 118.444Z" stroke="#F5DABD" stroke-width="2"/>
<path d="M216.12 119.032C216.117 118.834 216.076 118.638 215.999 118.456C215.921 118.273 215.808 118.108 215.666 117.969C215.524 117.83 215.357 117.721 215.173 117.647C214.989 117.573 214.792 117.536 214.594 117.538L208.454 117.602C208.054 117.607 207.671 117.77 207.391 118.056C207.111 118.342 206.956 118.728 206.96 119.128L207.022 125.008C207.024 125.206 207.065 125.402 207.143 125.585C207.22 125.767 207.333 125.932 207.475 126.071C207.617 126.21 207.784 126.319 207.968 126.393C208.152 126.467 208.349 126.504 208.547 126.502L214.687 126.438C215.087 126.433 215.47 126.27 215.75 125.984C216.03 125.698 216.185 125.312 216.181 124.912L216.12 119.032Z" stroke="#F5DABD" stroke-width="2"/>
<path d="M170.73 123.04C170.73 121.748 170.217 120.51 169.304 119.596C168.391 118.683 167.152 118.17 165.86 118.17C164.569 118.17 163.33 118.683 162.417 119.596C161.503 120.51 160.99 121.748 160.99 123.04C160.99 124.332 161.503 125.57 162.417 126.484C163.33 127.397 164.569 127.91 165.86 127.91C167.152 127.91 168.391 127.397 169.304 126.484C170.217 125.57 170.73 124.332 170.73 123.04Z" stroke="#F5DABD" stroke-width="2"/>
<path d="M87.9362 137.338C87.8117 136.068 87.1743 134.902 86.1643 134.094C85.1543 133.287 83.8543 132.905 82.5504 133.033C81.2465 133.161 80.0455 133.788 79.2115 134.776C78.3775 135.764 77.9789 137.033 78.1034 138.302C78.2279 139.572 78.8653 140.738 79.8753 141.546C80.8854 142.353 82.1853 142.735 83.4892 142.607C84.7931 142.479 85.9942 141.852 86.8281 140.864C87.6621 139.876 88.0607 138.608 87.9362 137.338Z" stroke="#F5DABD" stroke-width="2"/>
<path d="M167.211 139.63C167.211 138.333 166.695 137.09 165.778 136.172C164.861 135.255 163.618 134.74 162.321 134.74C161.024 134.74 159.78 135.255 158.863 136.172C157.946 137.09 157.431 138.333 157.431 139.63C157.431 140.927 157.946 142.171 158.863 143.088C159.78 144.005 161.024 144.52 162.321 144.52C163.618 144.52 164.861 144.005 165.778 143.088C166.695 142.171 167.211 140.927 167.211 139.63Z" stroke="#F5DABD" stroke-width="2"/>
<path d="M68.6702 146.33C68.6702 144.311 67.8684 142.376 66.4413 140.949C65.0141 139.521 63.0785 138.72 61.0602 138.72C59.0419 138.72 57.1063 139.521 55.6791 140.949C54.252 142.376 53.4502 144.311 53.4502 146.33C53.4502 148.348 54.252 150.284 55.6791 151.711C57.1063 153.138 59.0419 153.94 61.0602 153.94C63.0785 153.94 65.0141 153.138 66.4413 151.711C67.8684 150.284 68.6702 148.348 68.6702 146.33Z" stroke="#F5DABD" stroke-width="2"/>
<path d="M189.499 154.69C190.188 153.999 190.727 153.171 191.085 152.255C191.443 151.339 191.613 150.353 191.586 149.351C191.558 148.35 191.334 147.354 190.925 146.42C190.517 145.486 189.932 144.632 189.205 143.907C187.736 142.443 185.774 141.593 183.752 141.545C181.73 141.497 179.812 142.254 178.421 143.65C177.732 144.341 177.194 145.168 176.836 146.084C176.478 147 176.308 147.987 176.335 148.988C176.362 149.989 176.587 150.986 176.995 151.92C177.404 152.854 177.988 153.708 178.716 154.433C180.185 155.897 182.146 156.746 184.169 156.794C186.191 156.843 188.108 156.085 189.499 154.69Z" stroke="#F5DABD" stroke-width="2"/>
<path d="M96.2436 149.222C95.8843 148.708 95.4211 148.276 94.8805 147.948C94.3398 147.62 93.7323 147.403 93.0926 147.31C92.4529 147.218 91.7935 147.25 91.1521 147.407C90.5107 147.563 89.8999 147.84 89.3545 148.222C88.8091 148.604 88.3398 149.083 87.9735 149.632C87.6071 150.182 87.3508 150.79 87.2192 151.423C87.0876 152.056 87.0833 152.701 87.2065 153.321C87.3298 153.941 87.5781 154.524 87.9374 155.038C88.2967 155.551 88.7599 155.984 89.3005 156.312C89.8412 156.639 90.4487 156.856 91.0884 156.949C91.7281 157.042 92.3875 157.009 93.0289 156.852C93.6703 156.696 94.2811 156.419 94.8265 156.037C95.3719 155.655 95.8412 155.176 96.2076 154.627C96.5739 154.077 96.8302 153.469 96.9618 152.836C97.0934 152.203 97.0977 151.558 96.9745 150.938C96.8513 150.318 96.6029 149.735 96.2436 149.222Z" stroke="#F5DABD" stroke-width="2"/>
<path d="M156.356 156.802C157.273 155.935 157.791 154.72 157.795 153.426C157.8 152.131 157.29 150.862 156.379 149.899C155.468 148.935 154.23 148.356 152.937 148.288C151.644 148.22 150.403 148.669 149.485 149.536C148.568 150.404 148.05 151.619 148.046 152.913C148.042 154.208 148.551 155.476 149.462 156.44C150.373 157.403 151.611 157.983 152.904 158.051C154.197 158.119 155.439 157.67 156.356 156.802Z" stroke="#F5DABD" stroke-width="2"/>
<path d="M41.9258 151.719C41.8431 151.529 41.7237 151.357 41.5744 151.213C41.4252 151.069 41.249 150.956 41.0559 150.879C40.8629 150.803 40.6567 150.766 40.4493 150.77C40.2418 150.773 40.0371 150.818 39.8468 150.901L34.5095 153.221C34.3192 153.304 34.1471 153.423 34.003 153.573C33.8589 153.722 33.7455 153.898 33.6695 154.091C33.5935 154.284 33.5562 154.49 33.5598 154.698C33.5634 154.905 33.6079 155.11 33.6906 155.3L35.9954 160.601C36.0782 160.791 36.1976 160.963 36.3468 161.107C36.4961 161.252 36.6723 161.365 36.8653 161.441C37.0584 161.517 37.2645 161.554 37.472 161.551C37.6794 161.547 37.8841 161.503 38.0744 161.42L43.4117 159.099C43.602 159.016 43.7741 158.897 43.9183 158.748C44.0624 158.598 44.1757 158.422 44.2518 158.229C44.3278 158.036 44.3651 157.83 44.3614 157.623C44.3578 157.415 44.3134 157.21 44.2306 157.02L41.9258 151.719Z" stroke="#F5DABD" stroke-width="2"/>
<path d="M209.916 155.733C210.071 155.387 210.083 154.994 209.948 154.639C209.814 154.285 209.544 153.998 209.198 153.843L203.561 151.309C203.215 151.154 202.821 151.142 202.467 151.277C202.112 151.411 201.826 151.681 201.67 152.027L199.145 157.646C198.99 157.992 198.978 158.385 199.113 158.74C199.247 159.095 199.517 159.381 199.863 159.537L205.5 162.07C205.846 162.225 206.24 162.237 206.594 162.102C206.949 161.968 207.235 161.698 207.391 161.352L209.916 155.733Z" stroke="#F5DABD" stroke-width="2"/>
<path d="M10.0405 170.18C9.97911 170.266 9.94104 170.366 9.93006 170.471C9.91908 170.576 9.93557 170.682 9.9779 170.779C10.0202 170.876 10.087 170.96 10.1716 171.023C10.2562 171.086 10.3557 171.127 10.4605 171.14L27.7605 173.2C27.8659 173.211 27.9724 173.195 28.0697 173.153C28.1669 173.111 28.2515 173.044 28.3151 172.959C28.3786 172.875 28.419 172.775 28.4323 172.67C28.4455 172.564 28.4311 172.458 28.3905 172.36L21.5705 155.97C21.5279 155.871 21.4601 155.786 21.3741 155.722C21.288 155.659 21.1866 155.619 21.0802 155.606C20.9738 155.594 20.866 155.61 20.7678 155.653C20.6695 155.696 20.5843 155.764 20.5205 155.85L10.0405 170.18Z" stroke="#F5DABD" stroke-width="2"/>
<path d="M236.59 170.12C236.767 170.093 236.934 170.021 237.073 169.91C237.213 169.799 237.322 169.653 237.387 169.487C237.453 169.321 237.474 169.141 237.448 168.964C237.423 168.787 237.351 168.62 237.24 168.48L227.83 156.52C227.72 156.381 227.576 156.273 227.411 156.207C227.246 156.141 227.068 156.119 226.892 156.143C226.716 156.168 226.55 156.237 226.409 156.345C226.269 156.453 226.159 156.596 226.09 156.76L220.21 171.06C220.141 171.227 220.117 171.41 220.141 171.59C220.166 171.77 220.238 171.94 220.35 172.082C220.462 172.225 220.61 172.335 220.779 172.402C220.948 172.468 221.131 172.488 221.31 172.46L236.59 170.12Z" stroke="#F5DABD" stroke-width="2"/>
<path d="M109.605 158.419C108.823 157.401 107.647 156.752 106.334 156.615C105.021 156.478 103.679 156.865 102.604 157.69C101.529 158.515 100.808 159.711 100.601 161.014C100.393 162.318 100.715 163.622 101.497 164.64C102.278 165.659 103.455 166.308 104.768 166.444C106.08 166.581 107.422 166.194 108.497 165.369C109.572 164.544 110.293 163.349 110.501 162.045C110.708 160.742 110.386 159.437 109.605 158.419Z" stroke="#F5DABD" stroke-width="2"/>
<path d="M143.39 162.35C143.39 161.051 142.874 159.804 141.955 158.885C141.036 157.966 139.789 157.45 138.49 157.45C137.19 157.45 135.944 157.966 135.025 158.885C134.106 159.804 133.59 161.051 133.59 162.35C133.59 163.65 134.106 164.896 135.025 165.815C135.944 166.734 137.19 167.25 138.49 167.25C139.789 167.25 141.036 166.734 141.955 165.815C142.874 164.896 143.39 163.65 143.39 162.35Z" stroke="#F5DABD" stroke-width="2"/>
<path d="M127.22 165.23C127.22 163.933 126.705 162.689 125.788 161.772C124.871 160.855 123.627 160.34 122.33 160.34C121.034 160.34 119.79 160.855 118.873 161.772C117.956 162.689 117.44 163.933 117.44 165.23C117.44 166.527 117.956 167.771 118.873 168.688C119.79 169.605 121.034 170.12 122.33 170.12C123.627 170.12 124.871 169.605 125.788 168.688C126.705 167.771 127.22 166.527 127.22 165.23Z" stroke="#F5DABD" stroke-width="2"/>
<path d="M80.2836 162.72C79.6748 162.083 78.9465 161.572 78.1403 161.216C77.334 160.861 76.4656 160.667 75.5847 160.647C74.7037 160.627 73.8275 160.781 73.0059 161.1C72.1844 161.418 71.4336 161.896 70.7966 162.504L69.3652 163.872C68.0786 165.102 67.3331 166.792 67.2927 168.571C67.2524 170.35 67.9204 172.073 69.1499 173.359L69.896 174.14C70.5048 174.777 71.2331 175.288 72.0393 175.644C72.8456 175.999 73.7139 176.193 74.5949 176.213C75.4758 176.233 76.3521 176.079 77.1736 175.76C77.9952 175.442 78.7459 174.964 79.383 174.355L80.8144 172.987C82.101 171.758 82.8464 170.068 82.8868 168.289C82.9272 166.509 82.2592 164.787 81.0297 163.501L80.2836 162.72Z" stroke="#F5DABD" stroke-width="2"/>
<path d="M173.723 176.612C175.365 175.512 176.479 173.77 176.82 171.768C177.161 169.766 176.701 167.668 175.542 165.936C174.382 164.203 172.617 162.979 170.636 162.531C168.655 162.083 166.62 162.449 164.978 163.549C163.336 164.648 162.222 166.39 161.881 168.392C161.54 170.394 162 172.492 163.16 174.225C164.32 175.957 166.084 177.181 168.065 177.629C170.046 178.077 172.081 177.711 173.723 176.612Z" stroke="#F5DABD" stroke-width="2"/>
<path d="M102.088 178.126C101.471 177.379 100.704 176.767 99.8304 176.327C98.9564 175.887 97.9928 175.627 96.9944 175.562C95.996 175.497 94.9825 175.628 94.0116 175.948C93.0408 176.267 92.1317 176.769 91.3363 177.425C89.7298 178.749 88.6837 180.619 88.4281 182.624C88.1725 184.628 88.7283 186.603 89.9733 188.113C90.5897 188.861 91.3568 189.472 92.2308 189.912C93.1047 190.352 94.0684 190.612 95.0668 190.677C96.0652 190.742 97.0787 190.611 98.0495 190.292C99.0203 189.972 99.9294 189.47 100.725 188.814C102.331 187.49 103.377 185.62 103.633 183.616C103.889 181.611 103.333 179.637 102.088 178.126Z" stroke="#F5DABD" stroke-width="2"/>
<path d="M154.55 184.34C154.55 183.343 154.354 182.356 153.972 181.435C153.591 180.515 153.032 179.678 152.327 178.973C151.622 178.268 150.786 177.709 149.865 177.328C148.944 176.946 147.957 176.75 146.96 176.75C145.963 176.75 144.976 176.946 144.056 177.328C143.135 177.709 142.298 178.268 141.593 178.973C140.888 179.678 140.329 180.515 139.948 181.435C139.566 182.356 139.37 183.343 139.37 184.34C139.37 186.353 140.17 188.284 141.593 189.707C143.017 191.13 144.947 191.93 146.96 191.93C148.973 191.93 150.904 191.13 152.327 189.707C153.75 188.284 154.55 186.353 154.55 184.34Z" stroke="#F5DABD" stroke-width="2"/>
<path d="M59.5906 180.314C59.4599 180.179 59.3039 180.071 59.1316 179.997C58.9592 179.922 58.7739 179.882 58.5861 179.879C58.3983 179.876 58.2118 179.91 58.0372 179.979C57.8626 180.048 57.7033 180.151 57.5685 180.282L53.2454 184.471C52.973 184.735 52.8167 185.097 52.8107 185.476C52.8048 185.855 52.9497 186.221 53.2136 186.493L57.4308 190.845C57.5615 190.98 57.7174 191.088 57.8898 191.163C58.0621 191.237 58.2475 191.277 58.4353 191.28C58.623 191.283 58.8095 191.249 58.9841 191.18C59.1587 191.111 59.318 191.008 59.4529 190.877L63.776 186.688C64.0483 186.424 64.2047 186.062 64.2106 185.683C64.2166 185.304 64.0717 184.938 63.8078 184.666L59.5906 180.314Z" stroke="#F5DABD" stroke-width="2"/>
<path d="M190.511 186.533C190.798 186.242 190.959 185.85 190.957 185.441C190.954 185.033 190.79 184.642 190.5 184.355L186.32 180.219C186.177 180.077 186.006 179.964 185.819 179.888C185.632 179.811 185.431 179.772 185.229 179.773C185.027 179.775 184.827 179.815 184.64 179.894C184.454 179.972 184.285 180.086 184.142 180.23L179.95 184.467C179.663 184.757 179.503 185.149 179.505 185.558C179.507 185.966 179.671 186.357 179.962 186.644L184.141 190.78C184.285 190.923 184.455 191.035 184.642 191.112C184.83 191.188 185.03 191.227 185.232 191.226C185.435 191.225 185.635 191.184 185.821 191.105C186.008 191.027 186.177 190.913 186.319 190.769L190.511 186.533Z" stroke="#F5DABD" stroke-width="2"/>
<path d="M129.46 188.81C129.46 186.807 128.665 184.887 127.249 183.471C125.833 182.055 123.913 181.26 121.91 181.26C119.908 181.26 117.988 182.055 116.572 183.471C115.156 184.887 114.36 186.807 114.36 188.81C114.36 190.812 115.156 192.733 116.572 194.148C117.988 195.564 119.908 196.36 121.91 196.36C123.913 196.36 125.833 195.564 127.249 194.148C128.665 192.733 129.46 190.812 129.46 188.81Z" stroke="#F5DABD" stroke-width="2"/>
<path d="M42.3003 192.68C42.2242 192.604 42.1294 192.55 42.0256 192.523C41.9219 192.496 41.8128 192.496 41.7093 192.525C41.6059 192.553 41.5117 192.608 41.4364 192.685C41.3611 192.761 41.3073 192.856 41.2803 192.96L37.2003 209.07C37.1722 209.175 37.1728 209.286 37.2021 209.391C37.2315 209.496 37.2884 209.591 37.367 209.667C37.4456 209.743 37.5431 209.796 37.6492 209.821C37.7553 209.846 37.8662 209.842 37.9703 209.81L53.5003 205.16C53.6007 205.129 53.6915 205.074 53.764 204.998C53.8366 204.923 53.8884 204.829 53.9146 204.728C53.9407 204.626 53.9402 204.52 53.9132 204.419C53.8862 204.317 53.8335 204.225 53.7603 204.15L42.3003 192.68Z" stroke="#F5DABD" stroke-width="2"/>
<path d="M209.731 209.78C209.823 209.802 209.919 209.8 210.009 209.773C210.1 209.747 210.183 209.698 210.249 209.631C210.316 209.563 210.363 209.48 210.388 209.389C210.413 209.298 210.414 209.202 210.391 209.11L206.081 193.21C206.056 193.117 206.007 193.031 205.939 192.963C205.871 192.894 205.786 192.844 205.693 192.819C205.6 192.794 205.501 192.793 205.408 192.818C205.314 192.843 205.229 192.892 205.161 192.96L193.031 204.79C192.96 204.858 192.909 204.944 192.882 205.039C192.856 205.134 192.856 205.234 192.881 205.329C192.907 205.424 192.957 205.51 193.027 205.579C193.098 205.648 193.185 205.696 193.281 205.72L209.731 209.78Z" stroke="#F5DABD" stroke-width="2"/>
<path d="M92.6211 203.529C92.6781 203.39 92.7073 203.242 92.7071 203.092C92.7068 202.942 92.6771 202.794 92.6195 202.656C92.562 202.518 92.4778 202.392 92.3717 202.287C92.2657 202.181 92.1399 202.097 92.0015 202.04L85.955 199.548C85.6754 199.433 85.3616 199.433 85.0825 199.549C84.8033 199.666 84.5818 199.888 84.4666 200.167L81.9591 206.251C81.902 206.389 81.8728 206.538 81.873 206.687C81.8733 206.837 81.9031 206.985 81.9606 207.123C82.0181 207.262 82.1023 207.387 82.2084 207.493C82.3144 207.599 82.4402 207.682 82.5787 207.739L88.6252 210.232C88.9047 210.347 89.2185 210.346 89.4977 210.23C89.7768 210.114 89.9983 209.892 90.1136 209.612L92.6211 203.529Z" stroke="#F5DABD" stroke-width="2"/>
<path d="M158.819 200.709C158.728 200.505 158.598 200.321 158.435 200.168C158.273 200.015 158.082 199.895 157.874 199.815C157.665 199.735 157.443 199.698 157.22 199.704C156.997 199.71 156.777 199.76 156.573 199.851L151.425 202.154C151.013 202.338 150.692 202.678 150.531 203.1C150.37 203.521 150.383 203.989 150.567 204.4L152.862 209.53C152.953 209.734 153.083 209.918 153.246 210.071C153.408 210.225 153.599 210.345 153.807 210.424C154.016 210.504 154.238 210.542 154.461 210.536C154.684 210.529 154.904 210.479 155.108 210.388L160.256 208.085C160.668 207.901 160.989 207.561 161.15 207.14C161.311 206.719 161.298 206.251 161.114 205.839L158.819 200.709Z" stroke="#F5DABD" stroke-width="2"/>
<path d="M126.445 208.887C126.444 208.676 126.402 208.469 126.32 208.275C126.239 208.081 126.12 207.905 125.971 207.758C125.821 207.61 125.644 207.493 125.45 207.414C125.255 207.334 125.047 207.294 124.837 207.295L119.157 207.325C118.947 207.326 118.739 207.368 118.545 207.45C118.352 207.531 118.176 207.65 118.028 207.799C117.88 207.949 117.763 208.126 117.684 208.32C117.605 208.515 117.564 208.723 117.565 208.933L117.595 214.653C117.596 214.863 117.639 215.071 117.72 215.265C117.802 215.458 117.921 215.634 118.07 215.782C118.219 215.93 118.396 216.047 118.591 216.126C118.785 216.205 118.994 216.246 119.204 216.245L124.884 216.215C125.094 216.214 125.302 216.171 125.495 216.09C125.689 216.008 125.865 215.89 126.013 215.74C126.16 215.591 126.277 215.414 126.357 215.219C126.436 215.025 126.476 214.817 126.475 214.606L126.445 208.887Z" stroke="#F5DABD" stroke-width="2"/>
<path d="M171.211 237.25C171.26 237.285 171.317 237.306 171.377 237.313C171.437 237.319 171.498 237.309 171.553 237.285C171.609 237.261 171.657 237.223 171.693 237.175C171.73 237.126 171.753 237.07 171.761 237.01L174.001 218.8C174.009 218.739 174.001 218.677 173.977 218.62C173.954 218.563 173.916 218.514 173.867 218.476C173.819 218.439 173.761 218.415 173.7 218.406C173.639 218.398 173.577 218.406 173.521 218.43L156.491 225.59C156.435 225.614 156.386 225.653 156.35 225.702C156.314 225.751 156.291 225.809 156.284 225.87C156.277 225.93 156.285 225.992 156.309 226.048C156.334 226.104 156.372 226.153 156.421 226.19L171.211 237.25Z" stroke="#F5DABD" stroke-width="2"/>
<path d="M75.5299 219.63C75.4214 219.587 75.3037 219.573 75.1884 219.59C75.073 219.607 74.964 219.653 74.8721 219.725C74.7802 219.796 74.7086 219.891 74.6644 219.999C74.6201 220.107 74.6048 220.224 74.6199 220.34L76.8399 236.34C76.8561 236.456 76.9023 236.565 76.974 236.658C77.0457 236.75 77.1404 236.822 77.2486 236.867C77.3569 236.911 77.4748 236.927 77.5909 236.911C77.7069 236.896 77.8169 236.851 77.9099 236.78L90.9799 226.81C91.0728 226.737 91.1451 226.642 91.1894 226.533C91.2336 226.424 91.2484 226.305 91.2322 226.188C91.216 226.072 91.1693 225.962 91.097 225.869C91.0246 225.776 90.929 225.704 90.8199 225.66L75.5299 219.63Z" stroke="#F5DABD" stroke-width="2"/>
<path d="M123.58 245.99C123.612 246.043 123.657 246.088 123.711 246.118C123.765 246.148 123.826 246.164 123.888 246.163C123.95 246.162 124.011 246.144 124.064 246.112C124.117 246.08 124.161 246.034 124.19 245.98L132.97 230.34C133.001 230.285 133.016 230.224 133.014 230.162C133.013 230.1 132.995 230.039 132.963 229.986C132.93 229.933 132.884 229.89 132.829 229.86C132.774 229.831 132.712 229.817 132.65 229.82L114.99 230.19C114.929 230.191 114.87 230.209 114.818 230.241C114.766 230.273 114.723 230.318 114.693 230.371C114.664 230.425 114.649 230.485 114.65 230.546C114.652 230.608 114.669 230.667 114.7 230.72L123.58 245.99Z" stroke="#F5DABD" stroke-width="2"/>
<path d="M115.2 15.0798L123.42 -0.250203C123.461 -0.329902 123.524 -0.396715 123.6 -0.44335C123.677 -0.489985 123.765 -0.514648 123.855 -0.514648C123.945 -0.514648 124.033 -0.489985 124.109 -0.44335C124.186 -0.396715 124.249 -0.329902 124.29 -0.250203L132.41 15.1398C132.45 15.215 132.47 15.2994 132.467 15.3845C132.465 15.4697 132.44 15.5527 132.395 15.6254C132.351 15.6981 132.288 15.7579 132.214 15.799C132.139 15.8401 132.055 15.8611 131.97 15.8598L115.63 15.7998C115.546 15.7993 115.463 15.7771 115.39 15.7353C115.316 15.6935 115.255 15.6335 115.212 15.561C115.169 15.4886 115.145 15.4063 115.143 15.322C115.141 15.2377 115.16 15.1543 115.2 15.0798Z" fill="#EAB47B"/>
<path d="M76.9505 9.09991L90.8405 19.5199C90.9454 19.6 91.0274 19.7064 91.0781 19.8283C91.1287 19.9502 91.1463 20.0833 91.1291 20.2141C91.1118 20.345 91.0604 20.469 90.9798 20.5736C90.8993 20.6783 90.7926 20.7598 90.6705 20.8099L74.6105 27.3999C74.489 27.4501 74.3564 27.4675 74.226 27.4502C74.0956 27.433 73.9721 27.3818 73.8678 27.3018C73.7634 27.2218 73.682 27.1157 73.6316 26.9943C73.5811 26.8729 73.5635 26.7403 73.5805 26.6099L75.7605 9.59991C75.7782 9.47086 75.8293 9.34866 75.9086 9.24535C75.988 9.14203 76.0929 9.06116 76.213 9.0107C76.3331 8.96024 76.4642 8.94193 76.5935 8.95758C76.7229 8.97322 76.8459 9.02227 76.9505 9.09991Z" fill="#EAB47B"/>
<path d="M172.67 26.8703L156.59 19.9703C156.54 19.9489 156.496 19.9149 156.462 19.8715C156.429 19.8282 156.407 19.777 156.399 19.7228C156.391 19.6686 156.397 19.6132 156.416 19.562C156.436 19.5108 156.468 19.4655 156.51 19.4303L170.26 8.60035C170.305 8.56413 170.358 8.5405 170.415 8.53192C170.471 8.52335 170.529 8.53015 170.582 8.5516C170.636 8.57306 170.682 8.60839 170.717 8.65391C170.752 8.69942 170.773 8.75345 170.78 8.81035L173.11 26.5403C173.116 26.5955 173.108 26.6512 173.086 26.7021C173.063 26.7529 173.028 26.7972 172.984 26.8304C172.94 26.8637 172.887 26.8849 172.832 26.8919C172.777 26.8989 172.722 26.8915 172.67 26.8703Z" fill="#EAB47B"/>
<path d="M125.202 27.7858L118.762 27.6959C118.006 27.6853 117.384 28.2901 117.373 29.0466L117.287 35.246C117.276 36.0026 117.881 36.6245 118.638 36.635L125.077 36.7249C125.834 36.7355 126.455 36.1307 126.466 35.3742L126.553 29.1748C126.563 28.4182 125.958 27.7964 125.202 27.7858Z" fill="#EAB47B"/>
<path d="M88.5684 33.6318L83.4949 35.9546C82.6261 36.3524 82.2443 37.3791 82.642 38.2478L84.8983 43.1758C85.296 44.0446 86.3227 44.4264 87.1914 44.0287L92.265 41.7058C93.1337 41.3081 93.5155 40.2814 93.1178 39.4127L90.8615 34.4846C90.4638 33.6159 89.4371 33.2341 88.5684 33.6318Z" fill="#EAB47B"/>
<path d="M161.249 36.3211L155.6 33.8648C154.896 33.5587 154.077 33.8813 153.771 34.5853L151.291 40.2894C150.985 40.9934 151.307 41.8122 152.011 42.1183L157.66 44.5746C158.364 44.8808 159.183 44.5582 159.489 43.8542L161.969 38.1501C162.276 37.4461 161.953 36.6272 161.249 36.3211Z" fill="#EAB47B"/>
<path d="M210.42 37.1498L206.06 52.1598C206.021 52.2921 205.948 52.4121 205.849 52.5085C205.751 52.6049 205.629 52.6744 205.496 52.7105C205.362 52.7465 205.222 52.7479 205.088 52.7146C204.954 52.6812 204.831 52.6142 204.73 52.5198L193.41 41.7398C193.306 41.6406 193.23 41.5152 193.19 41.3768C193.15 41.2383 193.148 41.0917 193.183 40.9522C193.219 40.8126 193.291 40.685 193.393 40.5826C193.494 40.4803 193.621 40.4068 193.76 40.3698L209.43 36.1398C209.569 36.1019 209.716 36.1018 209.855 36.1395C209.994 36.1773 210.121 36.2514 210.222 36.3543C210.322 36.4573 210.394 36.5852 210.429 36.7251C210.464 36.8649 210.461 37.0115 210.42 37.1498Z" fill="#EAB47B"/>
<path d="M54.1402 41.1803L42.1602 52.6503C42.1163 52.6899 42.0631 52.7177 42.0055 52.7312C41.948 52.7447 41.888 52.7434 41.831 52.7274C41.7741 52.7115 41.7222 52.6813 41.6801 52.6399C41.638 52.5984 41.607 52.5469 41.5902 52.4903L36.9502 36.5803C36.9316 36.5201 36.9296 36.456 36.9444 36.3947C36.9592 36.3335 36.9902 36.2774 37.0343 36.2323C37.0783 36.1873 37.1337 36.1549 37.1945 36.1387C37.2554 36.1225 37.3196 36.1231 37.3802 36.1403L53.9902 40.5903C54.0498 40.6066 54.1041 40.6385 54.1475 40.6826C54.1908 40.7268 54.2217 40.7816 54.2369 40.8416C54.2522 40.9016 54.2513 40.9645 54.2343 41.024C54.2173 41.0835 54.1848 41.1374 54.1402 41.1803Z" fill="#EAB47B"/>
<path d="M124.17 63.2303C128.368 63.2303 131.77 59.8276 131.77 55.6303C131.77 51.4329 128.368 48.0303 124.17 48.0303C119.973 48.0303 116.57 51.4329 116.57 55.6303C116.57 59.8276 119.973 63.2303 124.17 63.2303Z" fill="#EAB47B"/>
<path d="M99.2201 67.6502C103.417 67.6502 106.82 64.2476 106.82 60.0502C106.82 55.8528 103.417 52.4502 99.2201 52.4502C95.0228 52.4502 91.6201 55.8528 91.6201 60.0502C91.6201 64.2476 95.0228 67.6502 99.2201 67.6502Z" fill="#EAB47B"/>
<path d="M57.314 53.1488L53.0923 57.3558C52.4977 57.9483 52.496 58.9108 53.0885 59.5054L57.2955 63.7271C57.8881 64.3217 58.8505 64.3234 59.4451 63.7308L63.6669 59.5238C64.2615 58.9313 64.2632 57.9689 63.6706 57.3742L59.4636 53.1525C58.871 52.5579 57.9086 52.5562 57.314 53.1488Z" fill="#EAB47B"/>
<path d="M190.514 57.415L186.477 53.3916C185.843 52.76 184.817 52.7618 184.186 53.3956L180.162 57.4331C179.531 58.0668 179.532 59.0926 180.166 59.7241L184.204 63.7476C184.837 64.3791 185.863 64.3773 186.495 63.7436L190.518 59.706C191.15 59.0723 191.148 58.0466 190.514 57.415Z" fill="#EAB47B"/>
<path d="M154.845 66.8115C158.172 64.0399 158.731 59.227 156.093 56.0617C153.456 52.8963 148.621 52.5771 145.295 55.3487C141.968 58.1203 141.409 62.9332 144.047 66.0986C146.684 69.2639 151.519 69.5831 154.845 66.8115Z" fill="#EAB47B"/>
<path d="M70.7068 78.5013C73.2324 81.9774 77.9674 82.8428 81.2827 80.434C84.598 78.0253 85.2382 73.2547 82.7126 69.7785C80.187 66.3024 75.4521 65.437 72.1367 67.8457C68.8214 70.2545 68.1812 75.0251 70.7068 78.5013Z" fill="#EAB47B"/>
<path d="M175.607 81.4669C178.793 78.4857 179.093 73.6303 176.278 70.622C173.463 67.6137 168.599 67.5917 165.413 70.5728C162.227 73.554 161.927 78.4094 164.742 81.4177C167.557 84.426 172.422 84.448 175.607 81.4669Z" fill="#EAB47B"/>
<path d="M236.6 75.5498L226.57 88.3098C226.516 88.3796 226.444 88.434 226.362 88.4678C226.281 88.5016 226.191 88.5135 226.104 88.5024C226.016 88.4913 225.933 88.4576 225.862 88.4045C225.791 88.3515 225.735 88.2809 225.7 88.1998L219.15 73.3398C219.114 73.2573 219.1 73.1668 219.111 73.0774C219.121 72.9881 219.155 72.903 219.209 72.8309C219.263 72.7588 219.334 72.7022 219.417 72.6669C219.5 72.6316 219.591 72.6188 219.68 72.6298L236.27 74.7298C236.359 74.7423 236.443 74.778 236.513 74.8332C236.584 74.8884 236.638 74.9613 236.672 75.0444C236.705 75.1276 236.716 75.2181 236.704 75.3068C236.691 75.3955 236.655 75.4793 236.6 75.5498Z" fill="#EAB47B"/>
<path d="M19.7704 89.5404L10.3304 77.4004C10.2217 77.2604 10.1517 77.0942 10.1276 76.9186C10.1034 76.743 10.1259 76.5641 10.1928 76.3999C10.2597 76.2357 10.3686 76.0921 10.5086 75.9833C10.6486 75.8746 10.8148 75.8046 10.9904 75.7804L26.2304 73.7204C26.4068 73.6961 26.5866 73.7188 26.7514 73.7863C26.9162 73.8538 27.0602 73.9637 27.1689 74.1048C27.2775 74.246 27.3469 74.4133 27.37 74.5899C27.3931 74.7665 27.3691 74.9461 27.3004 75.1104L21.5104 89.3004C21.4443 89.4662 21.3354 89.6116 21.1949 89.7216C21.0543 89.8316 20.8871 89.9024 20.7103 89.9268C20.5334 89.9512 20.3533 89.9283 20.1882 89.8604C20.0231 89.7926 19.879 89.6821 19.7704 89.5404Z" fill="#EAB47B"/>
<path d="M123.72 84.1497C126.404 84.1497 128.58 81.9738 128.58 79.2897C128.58 76.6056 126.404 74.4297 123.72 74.4297C121.036 74.4297 118.86 76.6056 118.86 79.2897C118.86 81.9738 121.036 84.1497 123.72 84.1497Z" fill="#EAB47B"/>
<path d="M107.65 86.9797C110.345 86.9797 112.53 84.7949 112.53 82.0997C112.53 79.4046 110.345 77.2197 107.65 77.2197C104.954 77.2197 102.77 79.4046 102.77 82.0997C102.77 84.7949 104.954 86.9797 107.65 86.9797Z" fill="#EAB47B"/>
<path d="M136.621 80.1277C135.007 82.4496 135.427 85.5329 137.558 87.0143C139.69 88.4957 142.726 87.8143 144.34 85.4924C145.953 83.1704 145.534 80.0872 143.402 78.6057C141.271 77.1243 138.235 77.8057 136.621 80.1277Z" fill="#EAB47B"/>
<path d="M43.4962 84.2393L38.3581 81.9624C37.525 81.5932 36.5503 81.9693 36.1811 82.8025L33.8232 88.1234C33.454 88.9566 33.8301 89.9312 34.6632 90.3004L39.8013 92.5773C40.6345 92.9465 41.6092 92.5704 41.9783 91.7373L44.3363 86.4163C44.7055 85.5832 44.3294 84.6085 43.4962 84.2393Z" fill="#EAB47B"/>
<path d="M205.98 82.7956L200.369 85.0853C199.654 85.3774 199.31 86.1946 199.602 86.9105L201.915 92.5768C202.207 93.2927 203.024 93.6362 203.74 93.344L209.351 91.0543C210.066 90.7622 210.41 89.945 210.118 89.2291L207.805 83.5628C207.513 82.8469 206.696 82.5034 205.98 82.7956Z" fill="#EAB47B"/>
<path d="M90.4588 95.0869C92.7288 96.6883 95.7871 96.2596 97.2898 94.1295C98.7924 91.9993 98.1703 88.9744 95.9003 87.3731C93.6303 85.7718 90.5719 86.2004 89.0693 88.3306C87.5666 90.4607 88.1887 93.4856 90.4588 95.0869Z" fill="#EAB47B"/>
<path d="M56.7498 100.154C59.7282 103.282 64.5516 103.523 67.5232 100.693C70.4948 97.8632 70.4894 93.0338 67.511 89.9062C64.5326 86.7786 59.7092 86.5372 56.7376 89.367C53.7659 92.1969 53.7714 97.0263 56.7498 100.154Z" fill="#EAB47B"/>
<path d="M156.854 95.8974C159.047 94.1654 159.507 91.0924 157.881 89.0336C156.255 86.9749 153.159 86.71 150.966 88.442C148.773 90.1741 148.313 93.2471 149.939 95.3058C151.565 97.3646 154.661 97.6294 156.854 95.8974Z" fill="#EAB47B"/>
<path d="M185.18 106C189.366 106 192.76 102.606 192.76 98.4198C192.76 94.2335 189.366 90.8398 185.18 90.8398C180.993 90.8398 177.6 94.2335 177.6 98.4198C177.6 102.606 180.993 106 185.18 106Z" fill="#EAB47B"/>
<path d="M101.5 132.45L101.51 110.08C101.51 109.702 101.61 109.331 101.799 109.005C101.989 108.678 102.262 108.407 102.59 108.22L122.34 96.9802C122.663 96.7961 123.028 96.6992 123.4 96.6992C123.772 96.6992 124.137 96.7961 124.46 96.9802L144.24 108.31C144.568 108.497 144.841 108.768 145.031 109.095C145.22 109.421 145.32 109.792 145.32 110.17L145.25 132.5C145.249 132.875 145.15 133.244 144.962 133.568C144.775 133.893 144.505 134.163 144.18 134.35L124.63 145.56C124.308 145.746 123.943 145.844 123.571 145.846C123.2 145.848 122.834 145.753 122.51 145.57L102.59 134.31C102.26 134.124 101.985 133.854 101.794 133.527C101.602 133.201 101.501 132.829 101.5 132.45Z" fill="#EAB47B"/>
<path d="M80.1304 107.849C81.9566 109.942 85.0531 110.229 87.0466 108.49C89.0401 106.751 89.1757 103.645 87.3496 101.551C85.5234 99.4578 82.4269 99.1705 80.4334 100.91C78.4399 102.649 78.3042 105.755 80.1304 107.849Z" fill="#EAB47B"/>
<path d="M163.1 111.75C165.801 111.75 167.99 109.56 167.99 106.86C167.99 104.159 165.801 101.97 163.1 101.97C160.399 101.97 158.21 104.159 158.21 106.86C158.21 109.56 160.399 111.75 163.1 111.75Z" fill="#EAB47B"/>
<path d="M56.4696 128.9C60.678 128.9 64.0896 125.489 64.0896 121.28C64.0896 117.072 60.678 113.66 56.4696 113.66C52.2612 113.66 48.8496 117.072 48.8496 121.28C48.8496 125.489 52.2612 128.9 56.4696 128.9Z" fill="#EAB47B"/>
<path d="M15.8502 131.57L1.09024 123.42C0.99399 123.369 0.913468 123.292 0.857311 123.199C0.801155 123.106 0.771484 122.999 0.771484 122.89C0.771484 122.781 0.801155 122.674 0.857311 122.581C0.913468 122.487 0.99399 122.411 1.09024 122.36L15.9702 114.41C16.0627 114.359 16.167 114.333 16.2726 114.335C16.3782 114.337 16.4814 114.367 16.5717 114.422C16.662 114.477 16.7362 114.554 16.7869 114.647C16.8375 114.74 16.8628 114.844 16.8602 114.95L16.7402 131.05C16.7393 131.154 16.7115 131.256 16.6593 131.345C16.6072 131.435 16.5327 131.51 16.4429 131.563C16.3532 131.615 16.2514 131.643 16.1475 131.645C16.0436 131.646 15.9412 131.62 15.8502 131.57Z" fill="#EAB47B"/>
<path d="M230.41 130.96L230.92 115.29C230.925 115.145 230.967 115.004 231.042 114.88C231.118 114.756 231.225 114.654 231.351 114.583C231.478 114.513 231.621 114.476 231.767 114.478C231.912 114.479 232.054 114.518 232.18 114.59L245.84 122.27C245.969 122.344 246.076 122.45 246.15 122.578C246.225 122.706 246.264 122.852 246.264 123C246.264 123.149 246.225 123.294 246.15 123.423C246.076 123.551 245.969 123.657 245.84 123.73L231.67 131.72C231.54 131.796 231.392 131.835 231.242 131.833C231.091 131.832 230.944 131.79 230.815 131.713C230.687 131.635 230.581 131.524 230.51 131.392C230.438 131.26 230.404 131.111 230.41 130.96Z" fill="#EAB47B"/>
<path d="M192.486 130.43C196.37 128.782 198.2 124.338 196.573 120.504C194.946 116.671 190.478 114.9 186.594 116.549C182.71 118.198 180.881 122.642 182.508 126.475C184.135 130.308 188.602 132.079 192.486 130.43Z" fill="#EAB47B"/>
<path d="M80.1498 126.41C82.8284 126.41 84.9998 124.239 84.9998 121.56C84.9998 118.881 82.8284 116.71 80.1498 116.71C77.4712 116.71 75.2998 118.881 75.2998 121.56C75.2998 124.239 77.4712 126.41 80.1498 126.41Z" fill="#EAB47B"/>
<path d="M35.6541 117.418L28.7341 117.442C28.1652 117.444 27.7057 117.906 27.7077 118.475L27.732 125.435C27.734 126.004 28.1967 126.464 28.7656 126.462L35.6855 126.438C36.2544 126.436 36.7139 125.973 36.7119 125.404L36.6876 118.444C36.6857 117.875 36.2229 117.416 35.6541 117.418Z" fill="#EAB47B"/>
<path d="M214.593 117.538L208.453 117.602C207.619 117.611 206.95 118.294 206.959 119.128L207.021 125.008C207.029 125.842 207.713 126.511 208.546 126.502L214.686 126.438C215.52 126.429 216.189 125.746 216.18 124.912L216.119 119.032C216.11 118.198 215.427 117.529 214.593 117.538Z" fill="#EAB47B"/>
<path d="M165.86 127.91C168.55 127.91 170.73 125.73 170.73 123.04C170.73 120.35 168.55 118.17 165.86 118.17C163.171 118.17 160.99 120.35 160.99 123.04C160.99 125.73 163.171 127.91 165.86 127.91Z" fill="#EAB47B"/>
<path d="M83.489 142.607C86.2042 142.34 88.1952 139.981 87.936 137.338C87.6768 134.694 85.2655 132.766 82.5502 133.033C79.8349 133.299 77.8439 135.658 78.1032 138.302C78.3624 140.946 80.7737 142.873 83.489 142.607Z" fill="#EAB47B"/>
<path d="M162.32 144.52C165.02 144.52 167.21 142.331 167.21 139.63C167.21 136.93 165.02 134.74 162.32 134.74C159.619 134.74 157.43 136.93 157.43 139.63C157.43 142.331 159.619 144.52 162.32 144.52Z" fill="#EAB47B"/>
<path d="M61.0602 153.94C65.2631 153.94 68.6702 150.533 68.6702 146.33C68.6702 142.127 65.2631 138.72 61.0602 138.72C56.8573 138.72 53.4502 142.127 53.4502 146.33C53.4502 150.533 56.8573 153.94 61.0602 153.94Z" fill="#EAB47B"/>
<path d="M178.715 154.433C181.774 157.481 186.602 157.596 189.499 154.69C192.395 151.783 192.263 146.955 189.204 143.907C186.145 140.858 181.317 140.743 178.42 143.65C175.524 146.556 175.656 151.384 178.715 154.433Z" fill="#EAB47B"/>
<path d="M94.8262 156.038C97.1199 154.431 97.7544 151.38 96.2433 149.222C94.7323 147.064 91.648 146.617 89.3543 148.223C87.0606 149.829 86.4261 152.88 87.9371 155.038C89.4482 157.196 92.5325 157.644 94.8262 156.038Z" fill="#EAB47B"/>
<path d="M149.462 156.441C151.359 158.447 154.446 158.609 156.356 156.803C158.266 154.997 158.276 151.906 156.379 149.899C154.481 147.893 151.395 147.731 149.485 149.537C147.575 151.343 147.564 154.434 149.462 156.441Z" fill="#EAB47B"/>
<path d="M39.8458 150.901L34.5085 153.222C33.7083 153.569 33.3416 154.5 33.6896 155.301L35.9944 160.601C36.3423 161.401 37.2731 161.768 38.0733 161.42L43.4106 159.099C44.2109 158.751 44.5775 157.821 44.2296 157.02L41.9248 151.72C41.5768 150.92 40.6461 150.553 39.8458 150.901Z" fill="#EAB47B"/>
<path d="M209.197 153.843L203.56 151.31C202.84 150.986 201.993 151.308 201.67 152.028L199.145 157.647C198.821 158.367 199.142 159.213 199.863 159.537L205.5 162.07C206.22 162.394 207.066 162.073 207.39 161.352L209.915 155.734C210.239 155.013 209.917 154.167 209.197 153.843Z" fill="#EAB47B"/>
<path d="M10.0396 170.18L20.5196 155.85C20.5833 155.764 20.6685 155.696 20.7668 155.653C20.865 155.61 20.9728 155.594 21.0792 155.606C21.1857 155.619 21.287 155.659 21.3731 155.722C21.4592 155.786 21.5269 155.871 21.5696 155.97L28.3896 172.36C28.4302 172.458 28.4445 172.564 28.4313 172.67C28.4181 172.775 28.3777 172.875 28.3141 172.959C28.2505 173.044 28.1659 173.111 28.0687 173.153C27.9714 173.195 27.8649 173.211 27.7596 173.2L10.4596 171.14C10.3548 171.127 10.2552 171.086 10.1706 171.023C10.086 170.96 10.0193 170.876 9.97693 170.779C9.93459 170.682 9.91811 170.576 9.92909 170.471C9.94007 170.366 9.97814 170.266 10.0396 170.18Z" fill="#EAB47B"/>
<path d="M236.59 170.12L221.31 172.46C221.131 172.488 220.948 172.468 220.779 172.402C220.61 172.335 220.462 172.225 220.35 172.082C220.238 171.94 220.166 171.77 220.141 171.59C220.117 171.41 220.141 171.227 220.21 171.06L226.09 156.76C226.159 156.596 226.269 156.453 226.409 156.345C226.55 156.237 226.716 156.168 226.892 156.143C227.068 156.119 227.246 156.141 227.411 156.207C227.576 156.273 227.72 156.381 227.83 156.52L237.24 168.48C237.351 168.62 237.423 168.787 237.448 168.964C237.474 169.141 237.453 169.321 237.387 169.487C237.322 169.653 237.213 169.799 237.073 169.91C236.934 170.021 236.767 170.093 236.59 170.12Z" fill="#EAB47B"/>
<path d="M108.497 165.37C110.736 163.652 111.232 160.54 109.604 158.419C107.977 156.298 104.843 155.972 102.604 157.69C100.365 159.408 99.869 162.52 101.496 164.641C103.123 166.761 106.258 167.088 108.497 165.37Z" fill="#EAB47B"/>
<path d="M138.49 167.25C141.196 167.25 143.39 165.056 143.39 162.35C143.39 159.644 141.196 157.45 138.49 157.45C135.784 157.45 133.59 159.644 133.59 162.35C133.59 165.056 135.784 167.25 138.49 167.25Z" fill="#EAB47B"/>
<path d="M122.33 170.12C125.031 170.12 127.22 167.931 127.22 165.23C127.22 162.529 125.031 160.34 122.33 160.34C119.63 160.34 117.44 162.529 117.44 165.23C117.44 167.931 119.63 170.12 122.33 170.12Z" fill="#EAB47B"/>
<path d="M70.7972 162.504L69.3658 163.872C66.6866 166.432 66.5902 170.68 69.1505 173.359L69.8966 174.14C72.4569 176.819 76.7044 176.915 79.3836 174.355L80.815 172.987C83.4942 170.427 83.5906 166.179 81.0303 163.5L80.2842 162.719C77.7239 160.04 73.4764 159.944 70.7972 162.504Z" fill="#EAB47B"/>
<path d="M163.159 174.225C165.574 177.832 170.303 178.901 173.722 176.612C177.141 174.323 177.955 169.543 175.54 165.936C173.126 162.329 168.396 161.26 164.977 163.549C161.558 165.838 160.744 170.617 163.159 174.225Z" fill="#EAB47B"/>
<path d="M100.724 188.815C104.069 186.057 104.68 181.272 102.087 178.127C99.4945 174.982 94.6809 174.668 91.3356 177.426C87.9902 180.183 87.38 184.968 89.9726 188.114C92.5651 191.259 97.3788 191.573 100.724 188.815Z" fill="#EAB47B"/>
<path d="M146.96 191.93C151.152 191.93 154.55 188.532 154.55 184.34C154.55 180.148 151.152 176.75 146.96 176.75C142.768 176.75 139.37 180.148 139.37 184.34C139.37 188.532 142.768 191.93 146.96 191.93Z" fill="#EAB47B"/>
<path d="M57.5678 180.282L53.2447 184.472C52.6775 185.021 52.6633 185.927 53.2129 186.494L57.4302 190.846C57.9798 191.413 58.8851 191.427 59.4522 190.877L63.7754 186.688C64.3425 186.138 64.3567 185.233 63.8071 184.666L59.5899 180.314C59.0403 179.747 58.135 179.733 57.5678 180.282Z" fill="#EAB47B"/>
<path d="M190.499 184.355L186.319 180.219C185.715 179.621 184.74 179.626 184.141 180.23L179.949 184.467C179.351 185.071 179.356 186.046 179.961 186.645L184.14 190.781C184.745 191.379 185.72 191.374 186.318 190.769L190.51 186.533C191.108 185.928 191.103 184.953 190.499 184.355Z" fill="#EAB47B"/>
<path d="M121.91 196.36C126.08 196.36 129.46 192.98 129.46 188.81C129.46 184.64 126.08 181.26 121.91 181.26C117.741 181.26 114.36 184.64 114.36 188.81C114.36 192.98 117.741 196.36 121.91 196.36Z" fill="#EAB47B"/>
<path d="M42.3003 192.68L53.7603 204.15C53.8335 204.225 53.8862 204.317 53.9132 204.419C53.9402 204.52 53.9407 204.626 53.9146 204.728C53.8884 204.829 53.8366 204.923 53.764 204.998C53.6915 205.074 53.6007 205.129 53.5003 205.16L37.9703 209.81C37.8662 209.842 37.7553 209.846 37.6492 209.821C37.5431 209.796 37.4456 209.743 37.367 209.667C37.2884 209.591 37.2315 209.496 37.2021 209.391C37.1728 209.286 37.1722 209.175 37.2003 209.07L41.2803 192.96C41.3073 192.856 41.3611 192.761 41.4364 192.685C41.5117 192.608 41.6059 192.553 41.7093 192.525C41.8128 192.496 41.9219 192.496 42.0256 192.523C42.1294 192.55 42.2242 192.604 42.3003 192.68Z" fill="#EAB47B"/>
<path d="M209.73 209.78L193.28 205.72C193.184 205.696 193.097 205.648 193.026 205.579C192.956 205.51 192.906 205.424 192.88 205.329C192.855 205.234 192.855 205.134 192.881 205.039C192.908 204.944 192.959 204.858 193.03 204.79L205.16 192.96C205.228 192.892 205.313 192.843 205.407 192.818C205.5 192.793 205.599 192.794 205.692 192.819C205.785 192.844 205.87 192.894 205.938 192.963C206.006 193.031 206.055 193.117 206.08 193.21L210.39 209.11C210.413 209.202 210.412 209.298 210.387 209.389C210.362 209.48 210.315 209.563 210.248 209.631C210.182 209.698 210.099 209.747 210.009 209.773C209.918 209.8 209.822 209.802 209.73 209.78Z" fill="#EAB47B"/>
<path d="M92.0019 202.04L85.9553 199.548C85.3733 199.308 84.7069 199.585 84.4669 200.167L81.9595 206.251C81.7196 206.833 81.997 207.499 82.5791 207.739L88.6256 210.231C89.2077 210.471 89.8741 210.194 90.114 209.612L92.6214 203.528C92.8614 202.946 92.584 202.28 92.0019 202.04Z" fill="#EAB47B"/>
<path d="M156.572 199.851L151.424 202.154C150.567 202.538 150.183 203.543 150.566 204.4L152.861 209.531C153.244 210.388 154.25 210.772 155.107 210.388L160.255 208.085C161.112 207.702 161.496 206.696 161.113 205.839L158.818 200.709C158.435 199.852 157.429 199.468 156.572 199.851Z" fill="#EAB47B"/>
<path d="M124.837 207.295L119.157 207.325C118.273 207.329 117.56 208.049 117.565 208.933L117.595 214.653C117.6 215.537 118.32 216.249 119.203 216.245L124.883 216.215C125.767 216.21 126.479 215.49 126.475 214.606L126.445 208.886C126.44 208.003 125.72 207.29 124.837 207.295Z" fill="#EAB47B"/>
<path d="M171.21 237.25L156.42 226.19C156.371 226.153 156.333 226.104 156.308 226.048C156.284 225.992 156.276 225.93 156.283 225.87C156.29 225.809 156.313 225.751 156.349 225.702C156.385 225.653 156.434 225.614 156.49 225.59L173.52 218.43C173.576 218.406 173.638 218.398 173.699 218.406C173.76 218.415 173.818 218.439 173.866 218.476C173.915 218.514 173.953 218.563 173.976 218.62C174 218.677 174.008 218.739 174 218.8L171.76 237.01C171.752 237.07 171.729 237.126 171.692 237.175C171.656 237.223 171.608 237.261 171.553 237.285C171.497 237.309 171.436 237.319 171.376 237.313C171.316 237.306 171.259 237.285 171.21 237.25Z" fill="#EAB47B"/>
<path d="M75.5299 219.63L90.8199 225.66C90.929 225.704 91.0246 225.776 91.097 225.869C91.1693 225.962 91.216 226.072 91.2322 226.188C91.2484 226.305 91.2336 226.424 91.1894 226.533C91.1451 226.642 91.0728 226.737 90.9799 226.81L77.9099 236.78C77.8169 236.851 77.7069 236.896 77.5909 236.911C77.4748 236.927 77.3569 236.911 77.2486 236.867C77.1404 236.822 77.0457 236.75 76.974 236.658C76.9023 236.565 76.8561 236.456 76.8399 236.34L74.6199 220.34C74.6048 220.224 74.6201 220.107 74.6644 219.999C74.7086 219.891 74.7802 219.796 74.8721 219.725C74.964 219.653 75.073 219.607 75.1884 219.59C75.3037 219.573 75.4214 219.587 75.5299 219.63Z" fill="#EAB47B"/>
<path d="M123.58 245.99L114.7 230.72C114.669 230.667 114.652 230.608 114.65 230.546C114.649 230.485 114.664 230.425 114.693 230.371C114.723 230.318 114.766 230.273 114.818 230.241C114.87 230.209 114.929 230.191 114.99 230.19L132.65 229.82C132.712 229.817 132.774 229.831 132.829 229.86C132.884 229.89 132.93 229.933 132.963 229.986C132.995 230.039 133.013 230.1 133.014 230.162C133.016 230.224 133.001 230.285 132.97 230.34L124.19 245.98C124.161 246.034 124.117 246.08 124.064 246.112C124.011 246.144 123.95 246.162 123.888 246.163C123.826 246.164 123.765 246.148 123.711 246.118C123.657 246.088 123.612 246.043 123.58 245.99Z" fill="#EAB47B"/>
</g>
<defs>
<clipPath id="clip0_397_390">
<rect width="260" height="247" fill="white"/>
</clipPath>
</defs>
</svg>
