<svg width="1024" height="247" viewBox="0 0 1024 247" fill="none" xmlns="http://www.w3.org/2000/svg">
<g clip-path="url(#clip0_397_523)">
<path d="M123.56 0L115.3 15.02C115.258 15.0981 115.237 15.1857 115.238 15.2742C115.24 15.3627 115.264 15.4491 115.308 15.5248C115.353 15.6005 115.416 15.663 115.492 15.706C115.567 15.749 115.653 15.771 115.74 15.77L132.26 15.82C132.328 15.8207 132.395 15.8032 132.454 15.7693C132.513 15.7354 132.562 15.6862 132.596 15.6265C132.631 15.5669 132.649 15.499 132.65 15.4294C132.65 15.3599 132.633 15.2911 132.6 15.23L124.11 0" stroke="#F6DABC" stroke-width="2"/>
<path d="M76.8902 9.1197C76.7916 9.04716 76.6758 9.00171 76.5543 8.98788C76.4327 8.97406 76.3096 8.99234 76.1973 9.0409C76.085 9.08946 75.9874 9.16661 75.9142 9.26466C75.841 9.36271 75.7948 9.47823 75.7802 9.5997L73.6302 26.6297C73.6139 26.7514 73.63 26.8753 73.6768 26.9889C73.7236 27.1024 73.7994 27.2017 73.8967 27.2767C73.9939 27.3517 74.1092 27.3997 74.231 27.4161C74.3527 27.4324 74.4766 27.4164 74.5902 27.3697L90.7402 20.7597C90.8549 20.7125 90.955 20.6356 91.0302 20.537C91.1055 20.4384 91.1532 20.3216 91.1684 20.1985C91.1837 20.0754 91.166 19.9504 91.1171 19.8364C91.0682 19.7224 90.9899 19.6235 90.8902 19.5497L76.8902 9.1197Z" stroke="#F6DABC" stroke-width="2"/>
<path d="M172.62 26.7603C172.673 26.7835 172.732 26.7923 172.789 26.7858C172.847 26.7793 172.902 26.7578 172.948 26.7233C172.995 26.6888 173.032 26.6427 173.055 26.5895C173.078 26.5363 173.087 26.4779 173.08 26.4203L170.74 8.9203C170.733 8.86242 170.711 8.80749 170.675 8.76107C170.64 8.71466 170.593 8.67843 170.539 8.65607C170.485 8.63372 170.426 8.62603 170.369 8.6338C170.311 8.64157 170.256 8.66451 170.21 8.7003L156.54 19.4303C156.496 19.4662 156.462 19.513 156.441 19.566C156.42 19.6191 156.414 19.6766 156.422 19.7329C156.43 19.7893 156.452 19.8426 156.487 19.8877C156.522 19.9328 156.568 19.9682 156.62 19.9903L172.62 26.7603Z" stroke="#F6DABC" stroke-width="2"/>
<path d="M126.507 28.9834C126.508 28.8258 126.478 28.6696 126.418 28.5237C126.358 28.3778 126.271 28.245 126.16 28.133C126.049 28.021 125.917 27.9319 125.772 27.8709C125.627 27.8098 125.471 27.7779 125.313 27.7771L118.653 27.7422C118.496 27.7414 118.34 27.7716 118.194 27.8311C118.048 27.8907 117.915 27.9784 117.803 28.0892C117.691 28.2001 117.602 28.3319 117.541 28.4772C117.48 28.6224 117.448 28.7783 117.447 28.9359L117.413 35.4158C117.412 35.5734 117.442 35.7296 117.502 35.8755C117.562 36.0214 117.649 36.1542 117.76 36.2662C117.871 36.3782 118.003 36.4673 118.148 36.5284C118.293 36.5894 118.449 36.6213 118.607 36.6221L125.267 36.657C125.424 36.6578 125.58 36.6276 125.726 36.5681C125.872 36.5085 126.005 36.4208 126.117 36.31C126.229 36.1991 126.318 36.0673 126.379 35.922C126.44 35.7768 126.472 35.6209 126.473 35.4633L126.507 28.9834Z" stroke="#F6DABC" stroke-width="2"/>
<path d="M90.8149 34.4166C90.6352 34.0205 90.3055 33.712 89.8984 33.559C89.4912 33.4059 89.04 33.4209 88.6439 33.6006L83.4166 35.9718C83.0205 36.1515 82.712 36.4811 82.559 36.8883C82.4059 37.2954 82.4209 37.7467 82.6006 38.1428L84.9057 43.2244C85.0854 43.6205 85.415 43.929 85.8222 44.082C86.2293 44.235 86.6806 44.2201 87.0767 44.0404L92.304 41.6692C92.7001 41.4895 93.0086 41.1598 93.1616 40.7527C93.3146 40.3455 93.2997 39.8943 93.12 39.4982L90.8149 34.4166Z" stroke="#F6DABC" stroke-width="2"/>
<path d="M161.999 38.0384C162.133 37.7237 162.137 37.3686 162.009 37.0511C161.882 36.7337 161.633 36.48 161.319 36.3457L155.469 33.8505C155.154 33.7163 154.799 33.7125 154.481 33.8401C154.164 33.9677 153.91 34.2162 153.776 34.5309L151.281 40.381C151.146 40.6957 151.143 41.0508 151.27 41.3683C151.398 41.6857 151.646 41.9395 151.961 42.0737L157.811 44.5689C158.126 44.7032 158.481 44.7069 158.798 44.5793C159.116 44.4517 159.37 44.2032 159.504 43.8885L161.999 38.0384Z" stroke="#F6DABC" stroke-width="2"/>
<path d="M210.41 37.0097C210.445 36.8886 210.446 36.7604 210.415 36.6384C210.384 36.5164 210.321 36.4049 210.232 36.3153C210.144 36.2258 210.033 36.1614 209.911 36.1287C209.79 36.0961 209.662 36.0964 209.54 36.1297L193.61 40.4597C193.489 40.493 193.378 40.5581 193.29 40.6481C193.203 40.7381 193.14 40.8499 193.11 40.972C193.079 41.0941 193.082 41.2222 193.117 41.343C193.152 41.4638 193.219 41.5731 193.31 41.6597L204.84 52.6197C204.929 52.7033 205.037 52.7628 205.155 52.7924C205.274 52.8219 205.397 52.8206 205.515 52.7884C205.633 52.7563 205.74 52.6944 205.827 52.6088C205.913 52.5232 205.976 52.4168 206.01 52.2997L210.41 37.0097Z" stroke="#F6DABC" stroke-width="2"/>
<path d="M54.0398 41.1498C54.0829 41.1096 54.1144 41.0586 54.1311 41.0021C54.1478 40.9456 54.1491 40.8857 54.1348 40.8286C54.1205 40.7714 54.0912 40.7191 54.0498 40.6771C54.0085 40.6352 53.9567 40.605 53.8998 40.5898L37.3898 36.1698C37.3329 36.153 37.2725 36.1518 37.215 36.1664C37.1575 36.1811 37.1049 36.2109 37.063 36.2529C37.021 36.2949 36.9911 36.3474 36.9765 36.4049C36.9619 36.4625 36.963 36.5229 36.9798 36.5798L41.5598 52.5198C41.5756 52.5736 41.6049 52.6225 41.6448 52.6619C41.6848 52.7013 41.7341 52.7298 41.7882 52.7448C41.8422 52.7598 41.8992 52.7608 41.9537 52.7477C42.0083 52.7346 42.0585 52.7077 42.0998 52.6698L54.0398 41.1498Z" stroke="#F6DABC" stroke-width="2"/>
<path d="M131.77 55.6398C131.77 53.6268 130.97 51.6963 129.547 50.2729C128.123 48.8495 126.193 48.0498 124.18 48.0498C122.167 48.0498 120.236 48.8495 118.813 50.2729C117.39 51.6963 116.59 53.6268 116.59 55.6398C116.59 57.6528 117.39 59.5833 118.813 61.0067C120.236 62.4301 122.167 63.2298 124.18 63.2298C126.193 63.2298 128.123 62.4301 129.547 61.0067C130.97 59.5833 131.77 57.6528 131.77 55.6398Z" stroke="#F6DABC" stroke-width="2"/>
<path d="M106.79 60.0602C106.79 58.0525 105.992 56.1271 104.573 54.7074C103.153 53.2878 101.228 52.4902 99.2199 52.4902C97.2122 52.4902 95.2868 53.2878 93.8671 54.7074C92.4475 56.1271 91.6499 58.0525 91.6499 60.0602C91.6499 62.0679 92.4475 63.9934 93.8671 65.413C95.2868 66.8327 97.2122 67.6302 99.2199 67.6302C101.228 67.6302 103.153 66.8327 104.573 65.413C105.992 63.9934 106.79 62.0679 106.79 60.0602Z" stroke="#F6DABC" stroke-width="2"/>
<path d="M63.7448 59.4131C64.005 59.152 64.1508 58.7982 64.1502 58.4295C64.1495 58.0609 64.0025 57.7076 63.7414 57.4474L59.3638 53.0851C59.1026 52.8249 58.7488 52.6791 58.3802 52.6797C58.0116 52.6803 57.6583 52.8274 57.3981 53.0885L53.0358 57.4661C52.7756 57.7272 52.6297 58.081 52.6304 58.4496C52.631 58.8183 52.7781 59.1716 53.0392 59.4318L57.4168 63.7941C57.6779 64.0543 58.0317 64.2001 58.4003 64.1995C58.769 64.1988 59.1222 64.0518 59.3825 63.7907L63.7448 59.4131Z" stroke="#F6DABC" stroke-width="2"/>
<path d="M190.549 59.6634C190.84 59.3693 191.002 58.9717 191 58.558C190.998 58.1442 190.832 57.7483 190.537 57.4573L186.429 53.3916C186.283 53.2475 186.111 53.1335 185.921 53.0561C185.732 52.9787 185.528 52.9394 185.324 52.9405C185.119 52.9415 184.916 52.9829 184.727 53.0623C184.538 53.1417 184.367 53.2576 184.223 53.4032L180.171 57.4974C179.88 57.7915 179.718 58.1891 179.72 58.6028C179.722 59.0165 179.889 59.4125 180.183 59.7035L184.291 63.7692C184.437 63.9133 184.609 64.0273 184.799 64.1047C184.989 64.1821 185.192 64.2214 185.397 64.2203C185.602 64.2192 185.804 64.1778 185.993 64.0984C186.182 64.019 186.353 63.9032 186.497 63.7576L190.549 59.6634Z" stroke="#F6DABC" stroke-width="2"/>
<path d="M156.154 56.1699C155.543 55.4095 154.78 54.7832 153.909 54.3269C153.038 53.8707 152.075 53.5932 151.077 53.5106C150.079 53.4279 149.064 53.5415 148.091 53.845C147.117 54.1485 146.205 54.6359 145.404 55.2794C143.788 56.579 142.728 58.4354 142.458 60.4402C142.189 62.4451 142.731 64.4342 143.965 65.9699C144.577 66.7303 145.34 67.3566 146.211 67.8128C147.082 68.2691 148.044 68.5465 149.043 68.6292C150.041 68.7119 151.056 68.5983 152.029 68.2948C153.002 67.9913 153.915 67.5039 154.716 66.8604C156.332 65.5608 157.392 63.7044 157.661 61.6995C157.931 59.6947 157.389 57.7056 156.154 56.1699Z" stroke="#F6DABC" stroke-width="2"/>
<path d="M352.72 138.75L352.73 55.4903C352.73 55.1703 352.567 55.007 352.24 55.0003L330.54 54.9503C330.472 54.949 330.405 54.9612 330.342 54.9862C330.279 55.0112 330.221 55.0486 330.173 55.0961C330.124 55.1436 330.086 55.2002 330.06 55.2628C330.034 55.3253 330.02 55.3925 330.02 55.4603L330 159.97C330 160.277 330.157 160.43 330.47 160.43L399.99 160.41C400.123 160.41 400.255 160.381 400.376 160.326C400.497 160.271 400.604 160.19 400.691 160.09C400.779 159.989 400.843 159.871 400.881 159.744C400.919 159.616 400.929 159.482 400.91 159.35C399.543 149.604 394.737 143.377 386.49 140.67C383.97 139.844 380.1 139.454 374.88 139.5C367.72 139.567 360.567 139.554 353.42 139.46C352.953 139.454 352.72 139.217 352.72 138.75Z" stroke="#80A4A7" stroke-width="2"/>
<path d="M687.08 55.4802C687.08 55.3503 687.028 55.2256 686.936 55.1338C686.844 55.0419 686.72 54.9902 686.59 54.9902H665.39C665.26 54.9902 665.135 55.0419 665.043 55.1338C664.952 55.2256 664.9 55.3503 664.9 55.4802V159.94C664.9 160.07 664.952 160.195 665.043 160.287C665.135 160.379 665.26 160.43 665.39 160.43H686.59C686.72 160.43 686.844 160.379 686.936 160.287C687.028 160.195 687.08 160.07 687.08 159.94V55.4802Z" stroke="#80A4A7" stroke-width="2"/>
<path d="M729.88 75.4802C729.88 75.4159 729.893 75.3522 729.917 75.2927C729.942 75.2333 729.978 75.1792 730.023 75.1337C730.069 75.0882 730.123 75.0522 730.182 75.0275C730.242 75.0029 730.306 74.9902 730.37 74.9902L782.26 75.0002C782.39 75.0002 782.515 74.9486 782.606 74.8567C782.698 74.7648 782.75 74.6402 782.75 74.5102L782.74 55.4802C782.74 55.3503 782.688 55.2256 782.596 55.1338C782.505 55.0419 782.38 54.9902 782.25 54.9902H707.71C707.58 54.9902 707.455 55.0419 707.363 55.1338C707.272 55.2256 707.22 55.3503 707.22 55.4802L707.21 159.93C707.21 160.06 707.262 160.185 707.353 160.277C707.445 160.369 707.57 160.42 707.7 160.42H783C783.13 160.42 783.255 160.369 783.346 160.277C783.438 160.185 783.49 160.06 783.49 159.93V140.89C783.49 140.76 783.438 140.636 783.346 140.544C783.255 140.452 783.13 140.4 783 140.4L730.35 140.46C730.22 140.46 730.095 140.409 730.003 140.317C729.912 140.225 729.86 140.1 729.86 139.97L729.87 117.49C729.87 117.36 729.922 117.236 730.013 117.144C730.105 117.052 730.23 117 730.36 117H773.97C774.1 117 774.225 116.949 774.316 116.857C774.408 116.765 774.46 116.64 774.46 116.51V97.4702C774.46 97.3403 774.408 97.2156 774.316 97.1238C774.225 97.0319 774.1 96.9802 773.97 96.9802L730.35 96.9902C730.22 96.9902 730.095 96.9386 730.003 96.8467C729.912 96.7548 729.86 96.6302 729.86 96.5002L729.88 75.4802Z" stroke="#80A4A7" stroke-width="2"/>
<path d="M81.4187 80.3206C82.1928 79.7309 82.8375 78.9871 83.316 78.1317C83.7946 77.2763 84.0975 76.326 84.2077 75.3351C84.3178 74.3442 84.2329 73.332 83.9579 72.3565C83.6829 71.3809 83.2231 70.461 82.6047 69.6494C81.9864 68.8377 81.2216 68.1501 80.3542 67.6259C79.4867 67.1017 78.5334 66.7511 77.5488 66.5941C76.5642 66.4371 75.5676 66.4769 74.6158 66.7111C73.6641 66.9452 72.7758 67.3693 72.0017 67.959C71.2277 68.5486 70.5829 69.2924 70.1044 70.1478C69.6259 71.0032 69.3229 71.9535 69.2128 72.9444C69.1026 73.9354 69.1875 74.9475 69.4626 75.923C69.7376 76.8986 70.1974 77.8185 70.8157 78.6302C71.4341 79.4418 72.1988 80.1294 73.0663 80.6537C73.9338 81.1779 74.887 81.5285 75.8716 81.6855C76.8562 81.8424 77.8528 81.8027 78.8046 81.5685C79.7564 81.3343 80.6447 80.9103 81.4187 80.3206Z" stroke="#F6DABC" stroke-width="2"/>
<path d="M176.357 70.7373C175.701 70.0114 174.9 69.4293 174 69.0241C173.101 68.6189 172.119 68.3987 171.113 68.376C170.106 68.3533 169.093 68.5285 168.133 68.8917C167.173 69.2548 166.283 69.7988 165.515 70.4926C164.748 71.1864 164.116 72.0163 163.658 72.9351C163.2 73.8538 162.923 74.8434 162.844 75.8473C162.765 76.8511 162.885 77.8497 163.197 78.7858C163.509 79.722 164.007 80.5774 164.663 81.3033C165.319 82.0292 166.12 82.6114 167.02 83.0165C167.92 83.4217 168.901 83.6419 169.908 83.6647C170.914 83.6874 171.927 83.5122 172.887 83.149C173.847 82.7858 174.737 82.2418 175.505 81.548C176.273 80.8542 176.904 80.0243 177.362 79.1055C177.82 78.1868 178.097 77.1972 178.176 76.1934C178.255 75.1895 178.135 74.191 177.823 73.2548C177.511 72.3187 177.013 71.4632 176.357 70.7373Z" stroke="#F6DABC" stroke-width="2"/>
<path d="M236.7 75.3901C236.741 75.3357 236.767 75.2716 236.775 75.2042C236.783 75.1368 236.774 75.0684 236.748 75.0057C236.721 74.9431 236.679 74.8884 236.625 74.8471C236.571 74.8057 236.508 74.7792 236.44 74.7701L219.52 72.6301C219.453 72.623 219.385 72.6336 219.322 72.6609C219.26 72.6882 219.206 72.7313 219.166 72.7858C219.126 72.8403 219.1 72.9045 219.092 72.9719C219.084 73.0393 219.094 73.1076 219.12 73.1701L225.79 88.3501C225.817 88.4128 225.86 88.4674 225.915 88.5083C225.97 88.5492 226.034 88.575 226.102 88.5831C226.17 88.5912 226.239 88.5813 226.302 88.5545C226.365 88.5276 226.419 88.4847 226.46 88.4301L236.7 75.3901Z" stroke="#F6DABC" stroke-width="2"/>
<path d="M10.8501 75.8304C10.6905 75.8518 10.5394 75.9151 10.4122 76.0141C10.2851 76.113 10.1865 76.2438 10.1265 76.3933C10.0665 76.5428 10.0473 76.7055 10.0707 76.8649C10.0942 77.0242 10.1596 77.1745 10.2601 77.3004L19.8901 89.6704C19.9886 89.796 20.1183 89.8936 20.2663 89.9532C20.4144 90.0129 20.5755 90.0326 20.7336 90.0103C20.8916 89.988 21.041 89.9245 21.1668 89.8262C21.2926 89.728 21.3903 89.5983 21.4501 89.4504L27.2901 74.9704C27.3495 74.8224 27.3689 74.6614 27.3464 74.5036C27.324 74.3457 27.2605 74.1966 27.1622 74.071C27.064 73.9454 26.9345 73.8479 26.7867 73.7881C26.6389 73.7283 26.478 73.7084 26.3201 73.7304L10.8501 75.8304Z" stroke="#F6DABC" stroke-width="2"/>
<path d="M128.57 79.29C128.57 78.009 128.061 76.7804 127.155 75.8746C126.25 74.9688 125.021 74.46 123.74 74.46C122.459 74.46 121.231 74.9688 120.325 75.8746C119.419 76.7804 118.91 78.009 118.91 79.29C118.91 80.571 119.419 81.7995 120.325 82.7053C121.231 83.6111 122.459 84.12 123.74 84.12C125.021 84.12 126.25 83.6111 127.155 82.7053C128.061 81.7995 128.57 80.571 128.57 79.29Z" stroke="#F6DABC" stroke-width="2"/>
<path d="M112.51 82.1102C112.51 80.8186 111.997 79.5799 111.084 78.6666C110.17 77.7533 108.932 77.2402 107.64 77.2402C106.348 77.2402 105.11 77.7533 104.196 78.6666C103.283 79.5799 102.77 80.8186 102.77 82.1102C102.77 83.4018 103.283 84.6405 104.196 85.5538C105.11 86.4672 106.348 86.9802 107.64 86.9802C108.932 86.9802 110.17 86.4672 111.084 85.5538C111.997 84.6405 112.51 83.4018 112.51 82.1102Z" stroke="#F6DABC" stroke-width="2"/>
<path d="M137.517 86.9484C138.529 87.6724 139.811 87.9308 141.081 87.6667C142.352 87.4025 143.508 86.6375 144.294 85.5399C144.683 84.9964 144.969 84.3876 145.137 83.7482C145.305 83.1089 145.351 82.4515 145.272 81.8137C145.193 81.1759 144.991 80.57 144.677 80.0308C144.363 79.4916 143.944 79.0295 143.443 78.671C142.432 77.9469 141.15 77.6885 139.879 77.9526C138.608 78.2168 137.453 78.9818 136.667 80.0795C136.278 80.623 135.991 81.2318 135.823 81.8711C135.655 82.5104 135.609 83.1678 135.688 83.8056C135.767 84.4435 135.97 85.0493 136.283 85.5885C136.597 86.1277 137.016 86.5898 137.517 86.9484Z" stroke="#F6DABC" stroke-width="2"/>
<path d="M44.3247 86.421C44.4124 86.2242 44.4603 86.0122 44.466 85.7969C44.4716 85.5816 44.4348 85.3673 44.3576 85.1662C44.2804 84.9651 44.1644 84.7812 44.0161 84.625C43.8679 84.4688 43.6903 84.3433 43.4936 84.2557L38.3595 81.9699C37.9621 81.793 37.5108 81.7812 37.1047 81.937C36.6987 82.0929 36.3712 82.4037 36.1943 82.801L33.8352 88.0996C33.7476 88.2963 33.6996 88.5084 33.6939 88.7237C33.6883 88.939 33.7251 89.1533 33.8023 89.3544C33.8795 89.5555 33.9955 89.7394 34.1438 89.8956C34.292 90.0518 34.4696 90.1773 34.6664 90.2649L39.8005 92.5507C40.1978 92.7276 40.6491 92.7394 41.0552 92.5836C41.4612 92.4277 41.7887 92.1169 41.9656 91.7196L44.3247 86.421Z" stroke="#F6DABC" stroke-width="2"/>
<path d="M207.74 83.4694C207.61 83.1529 207.36 82.9009 207.044 82.7689C206.729 82.6368 206.374 82.6356 206.057 82.7654L200.265 85.1408C199.949 85.2707 199.697 85.5209 199.565 85.8365C199.433 86.1521 199.432 86.5073 199.561 86.8238L201.96 92.6712C202.089 92.9878 202.34 93.2397 202.655 93.3718C202.971 93.5038 203.326 93.505 203.643 93.3752L209.434 90.9998C209.751 90.87 210.003 90.6197 210.135 90.3041C210.267 89.9885 210.268 89.6334 210.138 89.3168L207.74 83.4694Z" stroke="#F6DABC" stroke-width="2"/>
<path d="M526.23 133.44C520.88 122.95 523.85 105.95 536.66 102.12C544.973 99.6404 552.087 101.737 558 108.41C558.234 108.67 558.467 108.677 558.7 108.43L571.3 95.3104C571.4 95.2047 571.477 95.0798 571.527 94.9434C571.577 94.807 571.598 94.6621 571.59 94.5177C571.581 94.3732 571.543 94.2324 571.478 94.1038C571.413 93.9753 571.322 93.8618 571.21 93.7704C546.41 73.1304 506.48 82.6404 501.7 117.24C500.36 126.95 503.02 137.93 508.92 145.92C523.58 165.8 553.61 167.15 571.61 150.57C571.674 150.512 571.726 150.441 571.762 150.362C571.798 150.284 571.818 150.198 571.821 150.112C571.824 150.025 571.809 149.939 571.778 149.858C571.747 149.777 571.7 149.703 571.64 149.64L559.21 136.47C559.144 136.401 559.064 136.347 558.975 136.311C558.886 136.275 558.791 136.259 558.695 136.262C558.598 136.266 558.504 136.29 558.417 136.333C558.33 136.376 558.253 136.436 558.19 136.51C549.46 146.95 532.7 146.11 526.23 133.44Z" stroke="#80A4A7" stroke-width="2"/>
<path d="M491.91 122.276C491.891 117.056 490.804 111.89 488.708 107.075C486.613 102.26 483.551 97.8882 479.697 94.2105C475.844 90.5328 471.274 87.6208 466.249 85.6407C461.224 83.6606 455.843 82.6512 450.411 82.6702C439.442 82.7085 428.936 86.9332 421.206 94.4148C413.476 101.896 409.153 112.022 409.19 122.564C409.208 127.784 410.296 132.95 412.392 137.765C414.487 142.58 417.549 146.952 421.402 150.629C425.256 154.307 429.825 157.219 434.85 159.199C439.875 161.179 445.257 162.189 450.689 162.17C461.658 162.131 472.163 157.907 479.894 150.425C487.624 142.944 491.946 132.818 491.91 122.276Z" stroke="#80A4A7" stroke-width="2"/>
<path d="M627.26 149.77C627.32 153.29 628.23 156.57 629.99 159.61C630.323 160.196 630.83 160.49 631.51 160.49L651.04 160.48C651.447 160.48 651.557 160.3 651.37 159.94C648.603 154.62 647.223 148.14 647.23 140.5C647.237 131.073 647.24 121.663 647.24 112.27C647.23 93.1495 635 84.3195 617.38 83.0995C603.49 82.1495 589.64 85.6995 579.33 95.5395C579.037 95.8262 579.01 96.1362 579.25 96.4695L588.6 109.2C588.644 109.26 588.7 109.31 588.764 109.346C588.829 109.383 588.9 109.405 588.974 109.412C589.048 109.418 589.122 109.409 589.192 109.385C589.262 109.36 589.326 109.321 589.38 109.27C594.9 104.01 601.607 100.943 609.5 100.07C615.48 99.4095 626.37 100.97 625.27 109.44C624.85 112.75 621.99 114.08 619.04 114.61C611.92 115.89 604.833 117.306 597.78 118.86C585.97 121.46 576.26 127.91 577.15 141.45C577.897 152.816 584.433 159.443 596.76 161.33C609.333 163.256 619.317 159.343 626.71 149.59C627.063 149.123 627.247 149.183 627.26 149.77Z" stroke="#80A4A7" stroke-width="2"/>
<path d="M896.14 127.75C896.128 127.694 896.129 127.635 896.143 127.579C896.157 127.523 896.184 127.471 896.221 127.426C896.259 127.381 896.306 127.344 896.359 127.319C896.412 127.294 896.471 127.281 896.53 127.28H949.81C950.103 127.28 950.263 127.137 950.29 126.85C951.183 118.117 950.223 110.46 947.41 103.88C941.15 89.21 926.82 82.09 911.26 82.9C891.83 83.92 877.32 96.13 874.28 115.05C869.05 147.69 894.95 165.55 924.52 161.4C933.186 160.18 941.026 156.71 948.04 150.99C948.176 150.879 948.265 150.721 948.29 150.548C948.314 150.375 948.271 150.201 948.17 150.06L939.19 137.28C938.936 136.927 938.646 136.89 938.32 137.17C924.65 149.13 900.74 148.96 896.14 127.75Z" stroke="#80A4A7" stroke-width="2"/>
<path d="M974.96 126.8C980.594 128.853 986.347 130.487 992.22 131.7C996.36 132.56 1002.45 134.18 1002.26 138.56C1002.09 142.473 999.914 144.763 995.72 145.43C984.907 147.157 975.294 144.62 966.88 137.82C966.814 137.765 966.735 137.726 966.652 137.704C966.568 137.683 966.48 137.68 966.396 137.697C966.311 137.713 966.23 137.748 966.16 137.798C966.09 137.849 966.032 137.914 965.99 137.99L958.48 151.97C958.307 152.297 958.367 152.58 958.66 152.82C974.12 165.37 1016.17 168.85 1022.86 143.83C1026.66 129.64 1017.7 119.99 1004.52 116.9C998.56 115.5 992.637 113.953 986.75 112.26C981.38 110.72 979.28 105.47 983.94 101.64C985.527 100.347 988.05 99.6599 991.51 99.5799C999.797 99.3932 1007.16 101.797 1013.6 106.79C1013.66 106.836 1013.73 106.868 1013.8 106.885C1013.88 106.902 1013.95 106.903 1014.03 106.888C1014.1 106.873 1014.17 106.842 1014.23 106.797C1014.29 106.753 1014.34 106.695 1014.37 106.63L1021.94 92.5099C1022.13 92.1632 1022.06 91.8766 1021.75 91.6499C1015.69 87.2966 1008.94 84.6332 1001.51 83.6599C983.47 81.2999 958.89 85.6999 960.31 109.5C960.85 118.69 966.81 123.82 974.96 126.8Z" stroke="#80A4A7" stroke-width="2"/>
<path d="M830.9 139.36L813.13 84.9102C813.037 84.6302 812.84 84.4902 812.54 84.4902L790.26 84.5002C790.169 84.4991 790.078 84.5203 789.997 84.5621C789.916 84.6038 789.846 84.6649 789.794 84.7398C789.741 84.8148 789.708 84.9014 789.697 84.9921C789.686 85.0828 789.697 85.1748 789.73 85.2602C798.057 106.9 806.327 128.497 814.54 150.05C817.45 157.69 818.18 162.89 813.72 169.46C810.1 174.78 801.48 171.55 795.84 173.3C787.88 175.76 783.417 181.477 782.45 190.45C782.41 190.824 782.58 191.01 782.96 191.01C791.953 190.984 800.98 190.937 810.04 190.87C820.267 190.79 828.137 187.26 833.65 180.28C835.783 177.587 838.483 171.9 841.75 163.22C851.51 137.294 861.277 111.2 871.05 84.9402C871.068 84.8916 871.074 84.8394 871.068 84.788C871.062 84.7367 871.044 84.6878 871.016 84.6455C870.987 84.6032 870.949 84.5688 870.904 84.5452C870.86 84.5216 870.81 84.5096 870.76 84.5102L848.72 84.4502C848.413 84.4502 848.213 84.5969 848.12 84.8902L831.05 139.35C831.045 139.366 831.036 139.38 831.023 139.39C831.011 139.4 830.995 139.407 830.979 139.408C830.962 139.409 830.946 139.405 830.932 139.396C830.918 139.388 830.907 139.375 830.9 139.36Z" stroke="#80A4A7" stroke-width="2"/>
<path d="M97.2293 94.201C97.967 93.193 98.2469 91.9133 98.0074 90.6434C97.7679 89.3735 97.0286 88.2174 95.9521 87.4295C95.419 87.0394 94.8192 86.7514 94.187 86.582C93.5547 86.4125 92.9024 86.365 92.2671 86.4421C91.6319 86.5192 91.0263 86.7194 90.4848 87.0312C89.9433 87.3431 89.4766 87.7605 89.1113 88.2596C88.3735 89.2676 88.0936 90.5473 88.3331 91.8172C88.5726 93.0871 89.312 94.2432 90.3885 95.0311C90.9215 95.4212 91.5213 95.7092 92.1536 95.8786C92.7858 96.0481 93.4382 96.0956 94.0734 96.0185C94.7086 95.9414 95.3143 95.7412 95.8558 95.4294C96.3973 95.1175 96.864 94.7001 97.2293 94.201Z" stroke="#F6DABC" stroke-width="2"/>
<path d="M67.3556 100.843C68.8184 99.5303 69.6717 97.6592 69.7278 95.641C69.784 93.6228 69.0384 91.6228 67.6551 90.0811C66.2718 88.5394 64.3641 87.5822 62.3516 87.42C60.3392 87.2579 58.3868 87.9042 56.924 89.2166C55.4613 90.5291 54.608 92.4002 54.5518 94.4184C54.4956 96.4367 55.2412 98.4366 56.6245 99.9783C58.0078 101.52 59.9155 102.477 61.928 102.639C63.9405 102.801 65.8928 102.155 67.3556 100.843Z" stroke="#F6DABC" stroke-width="2"/>
<path d="M157.942 89.0932C157.176 88.0938 156.016 87.4604 154.72 87.3325C153.423 87.2046 152.095 87.5926 151.029 88.4112C149.962 89.2298 149.243 90.4118 149.031 91.6974C148.819 92.9829 149.131 94.2666 149.898 95.266C150.665 96.2655 151.824 96.8988 153.121 97.0267C154.417 97.1546 155.745 96.7666 156.812 95.948C157.878 95.1295 158.597 93.9474 158.809 92.6619C159.021 91.3763 158.709 90.0927 157.942 89.0932Z" stroke="#F6DABC" stroke-width="2"/>
<path d="M192.74 98.4001C192.74 97.406 192.544 96.4216 192.164 95.5032C191.783 94.5847 191.226 93.7502 190.523 93.0473C189.82 92.3443 188.985 91.7867 188.067 91.4063C187.149 91.0259 186.164 90.8301 185.17 90.8301C184.176 90.8301 183.192 91.0259 182.273 91.4063C181.355 91.7867 180.52 92.3443 179.817 93.0473C179.114 93.7502 178.557 94.5847 178.176 95.5032C177.796 96.4216 177.6 97.406 177.6 98.4001C177.6 100.408 178.398 102.333 179.817 103.753C181.237 105.173 183.162 105.97 185.17 105.97C186.164 105.97 187.149 105.774 188.067 105.394C188.985 105.013 189.82 104.456 190.523 103.753C191.226 103.05 191.783 102.215 192.164 101.297C192.544 100.379 192.74 99.3942 192.74 98.4001Z" stroke="#F6DABC" stroke-width="2"/>
<path d="M101.52 132.53C101.52 132.88 101.613 133.223 101.788 133.525C101.964 133.827 102.216 134.077 102.52 134.25L122.57 145.61C122.869 145.78 123.206 145.87 123.55 145.87C123.894 145.87 124.231 145.78 124.53 145.61L144.29 134.27C144.594 134.097 144.846 133.847 145.022 133.545C145.197 133.243 145.29 132.9 145.29 132.55L145.26 110.06C145.261 109.712 145.17 109.369 144.996 109.067C144.822 108.765 144.572 108.514 144.27 108.34L124.38 96.9402C124.081 96.7701 123.744 96.6807 123.4 96.6807C123.056 96.6807 122.719 96.7701 122.42 96.9402L102.52 108.26C102.216 108.433 101.964 108.683 101.788 108.985C101.613 109.288 101.52 109.631 101.52 109.98V132.53Z" stroke="#F6DABC" stroke-width="2"/>
<path d="M86.9999 108.544C87.4786 108.138 87.8684 107.637 88.1468 107.069C88.4253 106.5 88.5871 105.876 88.6229 105.232C88.6588 104.588 88.5679 103.937 88.3556 103.315C88.1433 102.693 87.8138 102.114 87.3857 101.609C86.9576 101.104 86.4394 100.684 85.8607 100.373C85.282 100.062 84.6541 99.8662 84.0128 99.7963C83.3716 99.7265 82.7296 99.7842 82.1235 99.9661C81.5174 100.148 80.959 100.451 80.4803 100.857C80.0015 101.263 79.6118 101.764 79.3333 102.332C79.0548 102.901 78.893 103.525 78.8572 104.169C78.8214 104.813 78.9122 105.464 79.1245 106.086C79.3368 106.708 79.6664 107.287 80.0945 107.792C80.5226 108.297 81.0408 108.717 81.6195 109.028C82.1982 109.339 82.8261 109.535 83.4673 109.605C84.1085 109.674 84.7505 109.617 85.3567 109.435C85.9628 109.253 86.5211 108.95 86.9999 108.544Z" stroke="#F6DABC" stroke-width="2"/>
<path d="M167.99 106.87C167.99 105.576 167.476 104.335 166.561 103.42C165.645 102.504 164.404 101.99 163.11 101.99C161.816 101.99 160.574 102.504 159.659 103.42C158.744 104.335 158.23 105.576 158.23 106.87C158.23 108.164 158.744 109.406 159.659 110.321C160.574 111.236 161.816 111.75 163.11 111.75C164.404 111.75 165.645 111.236 166.561 110.321C167.476 109.406 167.99 108.164 167.99 106.87Z" stroke="#F6DABC" stroke-width="2"/>
<path d="M64.0901 121.29C64.0901 119.271 63.2884 117.336 61.8612 115.909C60.4341 114.481 58.4984 113.68 56.4801 113.68C54.4618 113.68 52.5262 114.481 51.099 115.909C49.6719 117.336 48.8701 119.271 48.8701 121.29C48.8701 122.289 49.067 123.279 49.4494 124.202C49.8318 125.125 50.3924 125.964 51.099 126.671C51.8057 127.377 52.6446 127.938 53.5679 128.32C54.4912 128.703 55.4808 128.9 56.4801 128.9C57.4795 128.9 58.4691 128.703 59.3923 128.32C60.3156 127.938 61.1545 127.377 61.8612 126.671C62.5679 125.964 63.1284 125.125 63.5108 124.202C63.8933 123.279 64.0901 122.289 64.0901 121.29Z" stroke="#F6DABC" stroke-width="2"/>
<path d="M16.0001 131.63C16.0756 131.672 16.1605 131.693 16.2465 131.692C16.3326 131.69 16.4169 131.667 16.4913 131.624C16.5658 131.581 16.6278 131.519 16.6713 131.445C16.7149 131.371 16.7386 131.286 16.7401 131.2L16.8301 114.84C16.8303 114.753 16.8079 114.668 16.765 114.592C16.7221 114.517 16.6603 114.454 16.5856 114.409C16.5109 114.365 16.4259 114.341 16.339 114.339C16.2521 114.337 16.1663 114.359 16.0901 114.4L0.990052 122.5C0.910677 122.543 0.844368 122.607 0.798154 122.684C0.751939 122.762 0.727539 122.85 0.727539 122.94C0.727539 123.03 0.751939 123.119 0.798154 123.196C0.844368 123.274 0.910677 123.337 0.990052 123.38L16.0001 131.63Z" stroke="#F6DABC" stroke-width="2"/>
<path d="M230.61 131.07C230.608 131.197 230.639 131.321 230.701 131.432C230.762 131.542 230.852 131.634 230.96 131.699C231.069 131.764 231.192 131.799 231.319 131.801C231.445 131.803 231.57 131.772 231.68 131.71L246.04 123.63C246.152 123.568 246.246 123.477 246.312 123.366C246.377 123.255 246.411 123.129 246.411 123C246.411 122.872 246.377 122.746 246.312 122.635C246.246 122.524 246.152 122.433 246.04 122.37L231.94 114.53C231.832 114.47 231.71 114.439 231.586 114.439C231.462 114.44 231.341 114.473 231.233 114.534C231.126 114.595 231.036 114.683 230.972 114.79C230.908 114.896 230.873 115.017 230.87 115.14L230.61 131.07Z" stroke="#F6DABC" stroke-width="2"/>
<path d="M197.13 123.49C197.13 121.48 196.332 119.552 194.91 118.13C193.489 116.709 191.561 115.91 189.55 115.91C187.54 115.91 185.612 116.709 184.19 118.13C182.769 119.552 181.97 121.48 181.97 123.49C181.97 125.5 182.769 127.428 184.19 128.85C185.612 130.272 187.54 131.07 189.55 131.07C191.561 131.07 193.489 130.272 194.91 128.85C196.332 127.428 197.13 125.5 197.13 123.49Z" stroke="#F6DABC" stroke-width="2"/>
<path d="M84.9798 121.59C84.9798 120.309 84.4709 119.08 83.5651 118.174C82.6593 117.269 81.4308 116.76 80.1498 116.76C78.8688 116.76 77.6403 117.269 76.7345 118.174C75.8287 119.08 75.3198 120.309 75.3198 121.59C75.3198 122.871 75.8287 124.099 76.7345 125.005C77.6403 125.911 78.8688 126.42 80.1498 126.42C81.4308 126.42 82.6593 125.911 83.5651 125.005C84.4709 124.099 84.9798 122.871 84.9798 121.59Z" stroke="#F6DABC" stroke-width="2"/>
<path d="M36.6432 118.413C36.6419 118.291 36.6166 118.171 36.5686 118.058C36.5207 117.946 36.4512 117.844 36.3639 117.759C36.2766 117.673 36.1734 117.606 36.0601 117.56C35.9468 117.515 35.8256 117.492 35.7035 117.493L28.6239 117.567C28.5017 117.569 28.3811 117.594 28.2687 117.642C28.1564 117.69 28.0546 117.759 27.9691 117.847C27.8837 117.934 27.8163 118.037 27.7707 118.15C27.7252 118.264 27.7024 118.385 27.7037 118.507L27.7774 125.547C27.7786 125.669 27.804 125.789 27.8519 125.902C27.8998 126.014 27.9694 126.116 28.0566 126.201C28.1439 126.287 28.2471 126.354 28.3604 126.4C28.4738 126.445 28.5949 126.468 28.7171 126.467L35.7967 126.393C35.9188 126.391 36.0395 126.366 36.1518 126.318C36.2641 126.27 36.3659 126.201 36.4514 126.113C36.5368 126.026 36.6043 125.923 36.6498 125.81C36.6954 125.696 36.7181 125.575 36.7169 125.453L36.6432 118.413Z" stroke="#F6DABC" stroke-width="2"/>
<path d="M216.027 118.907C216.022 118.552 215.876 118.213 215.621 117.965C215.367 117.718 215.024 117.581 214.669 117.586L208.289 117.675C207.934 117.68 207.595 117.826 207.347 118.081C207.099 118.336 206.963 118.678 206.968 119.034L207.053 125.153C207.058 125.508 207.204 125.847 207.459 126.095C207.714 126.343 208.057 126.479 208.412 126.474L214.791 126.385C215.147 126.38 215.485 126.234 215.733 125.98C215.981 125.725 216.117 125.382 216.113 125.027L216.027 118.907Z" stroke="#F6DABC" stroke-width="2"/>
<path d="M170.75 123.06C170.75 121.769 170.237 120.53 169.324 119.617C168.411 118.704 167.172 118.19 165.88 118.19C164.589 118.19 163.35 118.704 162.437 119.617C161.523 120.53 161.01 121.769 161.01 123.06C161.01 124.352 161.523 125.591 162.437 126.504C163.35 127.417 164.589 127.93 165.88 127.93C167.172 127.93 168.411 127.417 169.324 126.504C170.237 125.591 170.75 124.352 170.75 123.06Z" stroke="#F6DABC" stroke-width="2"/>
<path d="M87.9002 137.81C87.9002 136.524 87.3892 135.29 86.4797 134.38C85.5701 133.471 84.3365 132.96 83.0502 132.96C81.7639 132.96 80.5303 133.471 79.6207 134.38C78.7112 135.29 78.2002 136.524 78.2002 137.81C78.2002 139.096 78.7112 140.33 79.6207 141.239C80.5303 142.149 81.7639 142.66 83.0502 142.66C84.3365 142.66 85.5701 142.149 86.4797 141.239C87.3892 140.33 87.9002 139.096 87.9002 137.81Z" stroke="#F6DABC" stroke-width="2"/>
<path d="M166.26 142.689C167.04 141.687 167.374 140.403 167.189 139.121C167.004 137.838 166.315 136.662 165.272 135.85C164.23 135.039 162.921 134.659 161.632 134.794C160.343 134.93 159.181 135.569 158.4 136.571C157.62 137.573 157.286 138.857 157.471 140.14C157.656 141.422 158.345 142.598 159.388 143.41C160.43 144.221 161.739 144.601 163.028 144.466C164.317 144.331 165.479 143.692 166.26 142.689Z" stroke="#F6DABC" stroke-width="2"/>
<path d="M68.66 146.32C68.66 144.304 67.8593 142.371 66.434 140.946C65.0087 139.52 63.0756 138.72 61.06 138.72C59.0443 138.72 57.1112 139.52 55.686 140.946C54.2607 142.371 53.46 144.304 53.46 146.32C53.46 148.335 54.2607 150.268 55.686 151.694C57.1112 153.119 59.0443 153.92 61.06 153.92C63.0756 153.92 65.0087 153.119 66.434 151.694C67.8593 150.268 68.66 148.335 68.66 146.32Z" stroke="#F6DABC" stroke-width="2"/>
<path d="M189.46 154.728C190.153 154.043 190.697 153.22 191.06 152.308C191.423 151.395 191.6 150.41 191.579 149.41C191.558 148.409 191.34 147.412 190.938 146.475C190.535 145.538 189.956 144.68 189.234 143.95C187.775 142.476 185.82 141.612 183.8 141.549C181.779 141.485 179.858 142.227 178.459 143.611C177.767 144.297 177.223 145.119 176.86 146.032C176.496 146.944 176.32 147.929 176.341 148.93C176.362 149.931 176.58 150.928 176.982 151.864C177.385 152.801 177.963 153.659 178.686 154.389C180.145 155.863 182.099 156.727 184.12 156.791C186.141 156.854 188.062 156.112 189.46 154.728Z" stroke="#F6DABC" stroke-width="2"/>
<path d="M96.2398 149.249C95.5227 148.214 94.3966 147.524 93.1093 147.332C91.822 147.14 90.479 147.461 89.3757 148.225C88.8294 148.603 88.3584 149.079 87.9896 149.624C87.6208 150.17 87.3613 150.775 87.2261 151.406C87.0909 152.036 87.0826 152.678 87.2016 153.297C87.3207 153.915 87.5647 154.498 87.9198 155.011C88.637 156.046 89.7631 156.736 91.0503 156.928C92.3376 157.12 93.6806 156.799 94.7839 156.035C95.3302 155.657 95.8012 155.181 96.1701 154.636C96.5389 154.09 96.7983 153.485 96.9335 152.855C97.0687 152.224 97.077 151.582 96.958 150.963C96.839 150.345 96.5949 149.762 96.2398 149.249Z" stroke="#F6DABC" stroke-width="2"/>
<path d="M156.556 156.588C156.984 156.135 157.315 155.598 157.529 155.007C157.742 154.416 157.835 153.783 157.801 153.144C157.768 152.505 157.609 151.873 157.333 151.283C157.057 150.694 156.67 150.159 156.194 149.709C155.718 149.258 155.162 148.902 154.558 148.659C153.954 148.417 153.314 148.293 152.674 148.295C152.034 148.297 151.407 148.425 150.829 148.671C150.251 148.918 149.733 149.278 149.304 149.731C148.876 150.184 148.545 150.722 148.331 151.313C148.118 151.904 148.025 152.537 148.058 153.176C148.092 153.815 148.251 154.447 148.527 155.036C148.803 155.626 149.19 156.161 149.666 156.611C150.142 157.061 150.698 157.418 151.302 157.66C151.906 157.903 152.546 158.027 153.186 158.024C153.826 158.022 154.452 157.894 155.031 157.648C155.609 157.402 156.127 157.042 156.556 156.588Z" stroke="#F6DABC" stroke-width="2"/>
<path d="M41.8258 151.613C41.7514 151.442 41.6441 151.287 41.51 151.157C41.3758 151.028 41.2175 150.926 41.044 150.858C40.8705 150.789 40.6852 150.756 40.4987 150.759C40.3123 150.762 40.1283 150.802 39.9573 150.877L34.3816 153.301C34.0362 153.451 33.7647 153.732 33.6266 154.083C33.4886 154.433 33.4954 154.824 33.6456 155.169L36.054 160.708C36.1283 160.879 36.2357 161.034 36.3698 161.164C36.5039 161.293 36.6623 161.395 36.8358 161.463C37.0093 161.532 37.1946 161.565 37.381 161.562C37.5675 161.559 37.7515 161.519 37.9225 161.444L43.4982 159.02C43.8435 158.87 44.1151 158.589 44.2531 158.238C44.3912 157.888 44.3843 157.497 44.2342 157.152L41.8258 151.613Z" stroke="#F6DABC" stroke-width="2"/>
<path d="M209.924 155.63C209.995 155.467 210.034 155.293 210.037 155.115C210.041 154.938 210.01 154.762 209.945 154.597C209.881 154.432 209.785 154.281 209.662 154.153C209.539 154.025 209.392 153.922 209.23 153.851L203.48 151.327C203.318 151.255 203.143 151.217 202.965 151.213C202.788 151.209 202.612 151.241 202.447 151.305C202.282 151.37 202.131 151.466 202.003 151.589C201.875 151.711 201.772 151.858 201.701 152.02L199.177 157.771C199.106 157.933 199.067 158.108 199.063 158.285C199.06 158.462 199.091 158.638 199.155 158.804C199.22 158.969 199.316 159.12 199.439 159.248C199.561 159.376 199.708 159.478 199.87 159.549L205.621 162.074C205.783 162.145 205.958 162.183 206.135 162.187C206.312 162.191 206.489 162.16 206.654 162.095C206.819 162.031 206.97 161.935 207.098 161.812C207.226 161.689 207.328 161.542 207.399 161.38L209.924 155.63Z" stroke="#F6DABC" stroke-width="2"/>
<path d="M10.1001 170.12C10.0346 170.208 9.99343 170.312 9.98075 170.422C9.96807 170.531 9.98429 170.642 10.0278 170.743C10.0713 170.844 10.1406 170.932 10.2287 170.998C10.3168 171.064 10.4208 171.106 10.5301 171.12L27.6901 173.16C27.7999 173.174 27.9115 173.158 28.0136 173.115C28.1157 173.073 28.2047 173.004 28.2716 172.915C28.3385 172.827 28.381 172.723 28.3948 172.613C28.4086 172.503 28.3931 172.392 28.3501 172.29L21.5801 156.07C21.5371 155.966 21.4676 155.877 21.3785 155.809C21.2894 155.742 21.184 155.699 21.0731 155.686C20.9621 155.673 20.8497 155.689 20.7473 155.734C20.6448 155.778 20.5561 155.849 20.4901 155.94L10.1001 170.12Z" stroke="#F6DABC" stroke-width="2"/>
<path d="M236.65 170.08C236.813 170.056 236.966 169.989 237.095 169.887C237.224 169.785 237.324 169.65 237.384 169.498C237.445 169.345 237.465 169.179 237.441 169.016C237.418 168.853 237.352 168.699 237.25 168.57L227.77 156.47C227.669 156.34 227.536 156.24 227.383 156.178C227.231 156.116 227.065 156.095 226.902 156.117C226.739 156.139 226.585 156.204 226.455 156.304C226.324 156.405 226.223 156.538 226.16 156.69L220.21 171.12C220.146 171.274 220.124 171.442 220.147 171.607C220.169 171.773 220.235 171.929 220.338 172.06C220.441 172.192 220.577 172.293 220.732 172.355C220.887 172.416 221.055 172.435 221.22 172.41L236.65 170.08Z" stroke="#F6DABC" stroke-width="2"/>
<path d="M109.61 158.47C109.228 157.965 108.745 157.544 108.188 157.232C107.631 156.92 107.012 156.723 106.365 156.651C105.718 156.579 105.056 156.634 104.418 156.813C103.779 156.993 103.176 157.293 102.643 157.696C102.109 158.099 101.657 158.598 101.31 159.163C100.964 159.729 100.731 160.351 100.624 160.993C100.517 161.635 100.538 162.285 100.687 162.906C100.836 163.526 101.109 164.106 101.49 164.61C101.872 165.115 102.355 165.536 102.912 165.848C103.469 166.16 104.088 166.358 104.735 166.43C105.382 166.501 106.044 166.446 106.683 166.267C107.321 166.088 107.924 165.788 108.458 165.385C108.991 164.981 109.443 164.483 109.79 163.917C110.136 163.351 110.37 162.73 110.477 162.087C110.584 161.445 110.562 160.795 110.413 160.175C110.265 159.554 109.992 158.975 109.61 158.47Z" stroke="#F6DABC" stroke-width="2"/>
<path d="M143.39 162.36C143.39 161.06 142.874 159.814 141.955 158.895C141.036 157.976 139.789 157.46 138.49 157.46C137.846 157.46 137.209 157.587 136.615 157.833C136.02 158.079 135.48 158.44 135.025 158.895C134.57 159.35 134.209 159.89 133.963 160.485C133.717 161.079 133.59 161.716 133.59 162.36C133.59 163.66 134.106 164.906 135.025 165.825C135.944 166.744 137.19 167.26 138.49 167.26C139.789 167.26 141.036 166.744 141.955 165.825C142.874 164.906 143.39 163.66 143.39 162.36Z" stroke="#F6DABC" stroke-width="2"/>
<path d="M127.22 165.22C127.22 163.923 126.705 162.679 125.788 161.762C124.871 160.845 123.627 160.33 122.33 160.33C121.033 160.33 119.789 160.845 118.872 161.762C117.955 162.679 117.44 163.923 117.44 165.22C117.44 166.517 117.955 167.761 118.872 168.678C119.789 169.595 121.033 170.11 122.33 170.11C123.627 170.11 124.871 169.595 125.788 168.678C126.705 167.761 127.22 166.517 127.22 165.22Z" stroke="#F6DABC" stroke-width="2"/>
<path d="M80.9625 172.795C82.2038 171.527 82.8908 169.818 82.8722 168.044C82.8536 166.27 82.131 164.576 80.8634 163.335L80.0632 162.551C79.4355 161.936 78.6928 161.451 77.8777 161.123C77.0625 160.796 76.1908 160.632 75.3123 160.641C74.4338 160.65 73.5658 160.832 72.7576 161.177C71.9495 161.522 71.2172 162.022 70.6026 162.65L69.2173 164.065C67.9759 165.332 67.2889 167.041 67.3075 168.815C67.3261 170.59 68.0487 172.284 69.3164 173.525L70.1166 174.309C70.7443 174.923 71.4869 175.409 72.302 175.736C73.1172 176.064 73.9889 176.228 74.8674 176.219C75.7459 176.209 76.614 176.027 77.4221 175.683C78.2302 175.338 78.9625 174.837 79.5772 174.21L80.9625 172.795Z" stroke="#F6DABC" stroke-width="2"/>
<path d="M173.795 176.553C175.419 175.437 176.509 173.687 176.826 171.688C177.142 169.688 176.66 167.603 175.483 165.892C174.901 165.045 174.166 164.314 173.32 163.743C172.474 163.172 171.534 162.77 170.554 162.562C169.573 162.353 168.572 162.342 167.606 162.528C166.64 162.715 165.729 163.095 164.925 163.648C163.301 164.764 162.211 166.514 161.894 168.513C161.578 170.513 162.06 172.597 163.237 174.309C163.819 175.156 164.554 175.887 165.4 176.458C166.246 177.029 167.186 177.431 168.166 177.639C169.147 177.848 170.148 177.859 171.114 177.673C172.08 177.486 172.991 177.106 173.795 176.553Z" stroke="#F6DABC" stroke-width="2"/>
<path d="M101.965 177.988C100.688 176.508 98.8375 175.629 96.8214 175.543C94.8053 175.457 92.7884 176.173 91.2144 177.531C90.435 178.204 89.7878 179.014 89.3098 179.916C88.8317 180.818 88.5322 181.794 88.4283 182.788C88.3244 183.781 88.4181 184.774 88.7041 185.708C88.9901 186.643 89.4628 187.501 90.0953 188.233C91.3725 189.713 93.2226 190.592 95.2387 190.678C97.2548 190.763 99.2717 190.048 100.846 188.689C101.625 188.017 102.272 187.206 102.75 186.304C103.228 185.402 103.528 184.427 103.632 183.433C103.736 182.439 103.642 181.447 103.356 180.513C103.07 179.578 102.597 178.72 101.965 177.988Z" stroke="#F6DABC" stroke-width="2"/>
<path d="M154.54 184.34C154.54 182.329 153.741 180.401 152.32 178.98C150.898 177.558 148.97 176.76 146.96 176.76C144.95 176.76 143.022 177.558 141.6 178.98C140.178 180.401 139.38 182.329 139.38 184.34C139.38 186.35 140.178 188.278 141.6 189.7C143.022 191.121 144.95 191.92 146.96 191.92C148.97 191.92 150.898 191.121 152.32 189.7C153.741 188.278 154.54 186.35 154.54 184.34Z" stroke="#F6DABC" stroke-width="2"/>
<path d="M59.508 180.289C59.2631 180.039 58.9288 179.896 58.5788 179.893C58.2287 179.889 57.8915 180.025 57.6414 180.269L53.2402 184.579C53.1163 184.701 53.0176 184.845 52.9496 185.005C52.8816 185.164 52.8456 185.335 52.8438 185.509C52.842 185.682 52.8744 185.854 52.939 186.015C53.0037 186.176 53.0994 186.322 53.2207 186.446L57.5726 190.89C57.8175 191.14 58.1518 191.283 58.5018 191.286C58.8519 191.29 59.1891 191.155 59.4392 190.91L63.8404 186.6C63.9642 186.478 64.063 186.334 64.131 186.174C64.199 186.015 64.2349 185.844 64.2368 185.67C64.2386 185.497 64.2062 185.325 64.1416 185.164C64.0769 185.003 63.9812 184.857 63.8599 184.733L59.508 180.289Z" stroke="#F6DABC" stroke-width="2"/>
<path d="M190.57 186.449C190.702 186.313 190.806 186.153 190.876 185.978C190.946 185.802 190.981 185.614 190.979 185.425C190.977 185.236 190.937 185.049 190.862 184.876C190.788 184.702 190.68 184.544 190.545 184.412L186.208 180.18C185.934 179.913 185.566 179.766 185.184 179.771C184.802 179.775 184.438 179.931 184.171 180.205L179.911 184.57C179.779 184.706 179.675 184.866 179.604 185.041C179.534 185.217 179.499 185.405 179.502 185.594C179.504 185.783 179.543 185.97 179.618 186.144C179.692 186.317 179.8 186.475 179.936 186.607L184.273 190.839C184.546 191.106 184.914 191.253 185.296 191.249C185.678 191.244 186.042 191.088 186.309 190.814L190.57 186.449Z" stroke="#F6DABC" stroke-width="2"/>
<path d="M129.45 188.81C129.45 186.81 128.656 184.892 127.242 183.478C125.828 182.064 123.91 181.27 121.91 181.27C119.91 181.27 117.993 182.064 116.579 183.478C115.165 184.892 114.37 186.81 114.37 188.81C114.37 190.809 115.165 192.727 116.579 194.141C117.993 195.555 119.91 196.35 121.91 196.35C123.91 196.35 125.828 195.555 127.242 194.141C128.656 192.727 129.45 190.809 129.45 188.81Z" stroke="#F6DABC" stroke-width="2"/>
<path d="M37.28 209.08C37.2568 209.175 37.2591 209.275 37.2867 209.369C37.3142 209.463 37.366 209.549 37.4369 209.617C37.5078 209.684 37.5953 209.733 37.6906 209.756C37.7859 209.779 37.8857 209.777 37.98 209.75L53.58 205.22C53.6727 205.193 53.7568 205.142 53.8239 205.072C53.8911 205.002 53.9391 204.917 53.9633 204.823C53.9875 204.729 53.987 204.631 53.9618 204.538C53.9367 204.444 53.8878 204.359 53.82 204.29L42.2 192.61C42.1299 192.54 42.0425 192.489 41.9465 192.464C41.8506 192.439 41.7497 192.439 41.6541 192.466C41.5584 192.492 41.4716 192.543 41.4023 192.614C41.3331 192.686 41.2839 192.774 41.26 192.87L37.28 209.08Z" stroke="#F6DABC" stroke-width="2"/>
<path d="M209.72 209.75C209.81 209.771 209.903 209.768 209.992 209.741C210.08 209.715 210.16 209.666 210.223 209.6C210.287 209.533 210.332 209.451 210.354 209.362C210.376 209.272 210.375 209.179 210.35 209.09L206.06 193.29C206.036 193.201 205.989 193.12 205.923 193.055C205.858 192.99 205.777 192.943 205.688 192.919C205.6 192.895 205.506 192.894 205.417 192.917C205.328 192.94 205.246 192.986 205.18 193.05L193 204.84C192.931 204.906 192.881 204.99 192.855 205.082C192.83 205.175 192.83 205.272 192.856 205.365C192.881 205.457 192.932 205.541 193.001 205.607C193.07 205.673 193.157 205.719 193.25 205.74L209.72 209.75Z" stroke="#F6DABC" stroke-width="2"/>
<path d="M92.629 203.391C92.6786 203.269 92.7038 203.139 92.7032 203.008C92.7025 202.876 92.6759 202.746 92.6251 202.625C92.5742 202.504 92.4999 202.394 92.4066 202.302C92.3132 202.21 92.2026 202.137 92.081 202.087L85.8036 199.525C85.5581 199.425 85.2828 199.427 85.0383 199.529C84.7938 199.632 84.6001 199.828 84.4999 200.073L81.9306 206.369C81.881 206.491 81.8558 206.621 81.8565 206.752C81.8571 206.884 81.8837 207.014 81.9346 207.135C81.9854 207.256 82.0597 207.366 82.153 207.458C82.2464 207.55 82.357 207.623 82.4786 207.673L88.756 210.235C89.0016 210.335 89.2769 210.333 89.5214 210.231C89.7658 210.128 89.9595 209.932 90.0597 209.687L92.629 203.391Z" stroke="#F6DABC" stroke-width="2"/>
<path d="M158.855 200.757C158.766 200.553 158.637 200.368 158.476 200.212C158.316 200.057 158.126 199.935 157.919 199.854C157.711 199.772 157.489 199.732 157.266 199.736C157.043 199.74 156.822 199.787 156.618 199.876L151.482 202.109C151.277 202.198 151.092 202.327 150.937 202.487C150.782 202.648 150.66 202.838 150.578 203.045C150.496 203.253 150.456 203.475 150.46 203.698C150.464 203.921 150.512 204.142 150.601 204.346L152.826 209.463C152.915 209.668 153.043 209.853 153.204 210.008C153.365 210.164 153.554 210.285 153.762 210.367C153.97 210.449 154.191 210.489 154.415 210.485C154.638 210.481 154.858 210.434 155.063 210.345L160.198 208.112C160.403 208.023 160.588 207.894 160.743 207.733C160.899 207.573 161.02 207.383 161.102 207.176C161.184 206.968 161.224 206.746 161.22 206.523C161.216 206.3 161.169 206.079 161.08 205.875L158.855 200.757Z" stroke="#F6DABC" stroke-width="2"/>
<path d="M126.45 208.839C126.448 208.65 126.41 208.463 126.336 208.289C126.263 208.115 126.155 207.957 126.021 207.824C125.886 207.691 125.727 207.586 125.551 207.515C125.376 207.444 125.189 207.408 125 207.409L119 207.451C118.618 207.454 118.253 207.608 117.985 207.88C117.716 208.152 117.567 208.519 117.57 208.901L117.611 214.781C117.612 214.97 117.651 215.157 117.724 215.331C117.798 215.505 117.905 215.663 118.04 215.796C118.174 215.929 118.334 216.034 118.509 216.105C118.684 216.176 118.872 216.212 119.061 216.211L125.061 216.169C125.443 216.166 125.808 216.012 126.076 215.74C126.344 215.468 126.493 215.101 126.491 214.719L126.45 208.839Z" stroke="#F6DABC" stroke-width="2"/>
<path d="M171.2 237.23C171.247 237.263 171.301 237.284 171.358 237.29C171.415 237.296 171.473 237.287 171.526 237.263C171.578 237.24 171.624 237.204 171.658 237.157C171.692 237.111 171.713 237.057 171.72 237L173.99 218.82C173.997 218.762 173.988 218.704 173.965 218.651C173.942 218.597 173.905 218.551 173.858 218.517C173.812 218.482 173.757 218.461 173.699 218.454C173.641 218.448 173.583 218.457 173.53 218.48L156.48 225.58C156.426 225.602 156.379 225.638 156.344 225.685C156.308 225.731 156.286 225.786 156.279 225.844C156.272 225.902 156.28 225.961 156.303 226.015C156.326 226.068 156.363 226.115 156.41 226.15L171.2 237.23Z" stroke="#F6DABC" stroke-width="2"/>
<path d="M75.4399 219.63C75.3413 219.593 75.2348 219.582 75.1306 219.598C75.0265 219.614 74.9284 219.657 74.8458 219.723C74.7632 219.788 74.699 219.874 74.6594 219.972C74.6198 220.069 74.6062 220.176 74.6199 220.28L76.8799 236.37C76.8951 236.475 76.9374 236.574 77.0024 236.657C77.0675 236.741 77.1532 236.806 77.251 236.846C77.3489 236.887 77.4555 236.901 77.5605 236.887C77.6656 236.874 77.7653 236.834 77.8499 236.77L91.0299 226.71C91.1154 226.645 91.1822 226.558 91.2234 226.459C91.2646 226.359 91.2788 226.251 91.2646 226.144C91.2504 226.038 91.2082 225.937 91.1424 225.852C91.0766 225.767 90.9895 225.701 90.8899 225.66L75.4399 219.63Z" stroke="#F6DABC" stroke-width="2"/>
<path d="M132.83 230.47C132.856 230.423 132.87 230.37 132.869 230.316C132.868 230.262 132.854 230.209 132.826 230.163C132.799 230.116 132.76 230.078 132.714 230.051C132.667 230.024 132.614 230.01 132.56 230.01L114.98 230.13C114.926 230.131 114.873 230.146 114.826 230.174C114.779 230.202 114.741 230.242 114.715 230.29C114.688 230.337 114.675 230.391 114.676 230.445C114.677 230.5 114.692 230.553 114.72 230.6L123.61 246.03C123.637 246.078 123.677 246.117 123.724 246.145C123.771 246.173 123.825 246.187 123.88 246.187C123.935 246.187 123.989 246.173 124.037 246.145C124.084 246.117 124.123 246.078 124.15 246.03L132.83 230.47Z" stroke="#F6DABC" stroke-width="2"/>
<path d="M450.906 143.748C455.987 143.668 460.824 141.342 464.354 137.282C467.884 133.222 469.817 127.761 469.728 122.099C469.684 119.296 469.145 116.528 468.141 113.953C467.138 111.378 465.69 109.047 463.88 107.093C462.069 105.138 459.933 103.599 457.592 102.563C455.25 101.526 452.751 101.013 450.235 101.053C445.154 101.133 440.316 103.458 436.787 107.518C433.257 111.578 431.324 117.04 431.413 122.701C431.457 125.505 431.996 128.273 432.999 130.848C434.003 133.423 435.451 135.754 437.261 137.708C439.071 139.662 441.208 141.202 443.549 142.238C445.89 143.274 448.39 143.787 450.906 143.748Z" stroke="#80A4A7" stroke-width="2"/>
<path d="M610.92 129.45C604.61 130.17 594.77 133.06 599.14 142.06C600.447 144.74 602.74 146.156 606.02 146.31C619.94 146.97 626.303 140.203 625.11 126.01C625.09 125.803 624.983 125.74 624.79 125.82C620.337 127.686 615.713 128.896 610.92 129.45Z" stroke="#80A4A7" stroke-width="2"/>
<path d="M911.86 99.3503C903.36 100.11 898.5 105.69 896.42 113.58C896.406 113.632 896.404 113.687 896.415 113.739C896.426 113.792 896.448 113.842 896.481 113.884C896.514 113.927 896.556 113.961 896.605 113.985C896.653 114.008 896.706 114.021 896.76 114.02L928.26 114.03C928.38 114.03 928.498 114.003 928.605 113.951C928.713 113.899 928.809 113.825 928.884 113.732C928.96 113.639 929.014 113.531 929.042 113.415C929.071 113.299 929.074 113.178 929.05 113.06C926.943 103.087 921.213 98.517 911.86 99.3503Z" stroke="#80A4A7" stroke-width="2"/>
<path d="M123.56 0.000117187C123.74 -0.00654948 123.923 -0.00654948 124.11 0.000117187L132.6 15.2301C132.633 15.2912 132.65 15.36 132.65 15.4295C132.649 15.4991 132.631 15.5671 132.596 15.6267C132.562 15.6863 132.513 15.7355 132.454 15.7694C132.395 15.8034 132.328 15.8208 132.26 15.8201L115.74 15.7701C115.653 15.7711 115.567 15.7491 115.492 15.7061C115.416 15.6631 115.353 15.6006 115.308 15.5249C115.264 15.4492 115.24 15.3628 115.238 15.2743C115.237 15.1858 115.258 15.0982 115.3 15.0201L123.56 0.000117187Z" fill="#EDB478"/>
<path d="M76.8902 9.1197L90.8902 19.5497C90.9899 19.6235 91.0682 19.7224 91.1171 19.8364C91.166 19.9504 91.1837 20.0754 91.1684 20.1985C91.1532 20.3216 91.1055 20.4384 91.0302 20.537C90.955 20.6356 90.8549 20.7125 90.7402 20.7597L74.5902 27.3697C74.4766 27.4164 74.3527 27.4324 74.231 27.4161C74.1092 27.3997 73.9939 27.3517 73.8967 27.2767C73.7994 27.2017 73.7236 27.1024 73.6768 26.9889C73.63 26.8753 73.6139 26.7514 73.6302 26.6297L75.7802 9.5997C75.7948 9.47823 75.841 9.36271 75.9142 9.26466C75.9874 9.16661 76.085 9.08946 76.1973 9.0409C76.3096 8.99234 76.4327 8.97406 76.5543 8.98788C76.6758 9.00171 76.7916 9.04716 76.8902 9.1197Z" fill="#EDB478"/>
<path d="M172.62 26.7603L156.62 19.9903C156.568 19.9682 156.522 19.9328 156.487 19.8877C156.452 19.8426 156.43 19.7893 156.422 19.7329C156.414 19.6766 156.42 19.6191 156.441 19.566C156.462 19.513 156.496 19.4662 156.54 19.4303L170.21 8.7003C170.256 8.66451 170.311 8.64157 170.369 8.6338C170.426 8.62603 170.485 8.63372 170.539 8.65607C170.593 8.67843 170.64 8.71466 170.675 8.76107C170.711 8.80749 170.733 8.86242 170.74 8.9203L173.08 26.4203C173.087 26.4779 173.078 26.5363 173.055 26.5895C173.032 26.6427 172.995 26.6888 172.948 26.7233C172.902 26.7578 172.847 26.7793 172.789 26.7858C172.732 26.7923 172.673 26.7835 172.62 26.7603Z" fill="#EDB478"/>
<path d="M125.313 27.7775L118.653 27.7426C117.99 27.7391 117.45 28.2736 117.447 28.9363L117.413 35.4162C117.409 36.079 117.944 36.619 118.607 36.6225L125.267 36.6574C125.929 36.6608 126.469 36.1264 126.473 35.4637L126.507 28.9837C126.51 28.321 125.976 27.781 125.313 27.7775Z" fill="#EDB478"/>
<path d="M88.6437 33.5997L83.4164 35.9709C82.5915 36.3451 82.2262 37.3171 82.6003 38.142L84.9055 43.2236C85.2796 44.0484 86.2516 44.4138 87.0765 44.0396L92.3038 41.6684C93.1287 41.2942 93.494 40.3222 93.1198 39.4974L90.8147 34.4158C90.4405 33.5909 89.4685 33.2256 88.6437 33.5997Z" fill="#EDB478"/>
<path d="M161.319 36.3461L155.469 33.8508C154.813 33.5713 154.056 33.876 153.776 34.5313L151.281 40.3814C151.001 41.0367 151.306 41.7945 151.961 42.074L157.811 44.5693C158.467 44.8488 159.225 44.5442 159.504 43.8889L161.999 38.0388C162.279 37.3835 161.974 36.6256 161.319 36.3461Z" fill="#EDB478"/>
<path d="M210.41 37.0097L206.01 52.2997C205.976 52.4168 205.913 52.5232 205.827 52.6088C205.74 52.6944 205.633 52.7563 205.515 52.7884C205.397 52.8206 205.274 52.8219 205.155 52.7924C205.037 52.7628 204.929 52.7033 204.84 52.6197L193.31 41.6597C193.219 41.5731 193.152 41.4638 193.117 41.343C193.082 41.2222 193.079 41.0941 193.11 40.972C193.14 40.8499 193.203 40.7381 193.29 40.6481C193.378 40.5581 193.489 40.493 193.61 40.4597L209.54 36.1297C209.662 36.0964 209.79 36.0961 209.911 36.1287C210.033 36.1614 210.144 36.2258 210.232 36.3153C210.321 36.4049 210.384 36.5164 210.415 36.6384C210.446 36.7604 210.445 36.8886 210.41 37.0097Z" fill="#EDB478"/>
<path d="M54.0398 41.1498L42.0998 52.6698C42.0585 52.7077 42.0083 52.7346 41.9537 52.7477C41.8992 52.7608 41.8422 52.7598 41.7882 52.7448C41.7341 52.7298 41.6848 52.7013 41.6448 52.6619C41.6049 52.6225 41.5756 52.5736 41.5598 52.5198L36.9798 36.5798C36.963 36.5229 36.9619 36.4625 36.9765 36.4049C36.9911 36.3474 37.021 36.2949 37.063 36.2529C37.1049 36.2109 37.1575 36.1811 37.215 36.1664C37.2725 36.1518 37.3329 36.153 37.3898 36.1698L53.8998 40.5898C53.9567 40.605 54.0085 40.6352 54.0498 40.6771C54.0912 40.7191 54.1205 40.7714 54.1348 40.8286C54.1491 40.8857 54.1478 40.9456 54.1311 41.0021C54.1144 41.0586 54.0829 41.1096 54.0398 41.1498Z" fill="#EDB478"/>
<path d="M124.18 63.2298C128.372 63.2298 131.77 59.8316 131.77 55.6398C131.77 51.448 128.372 48.0498 124.18 48.0498C119.988 48.0498 116.59 51.448 116.59 55.6398C116.59 59.8316 119.988 63.2298 124.18 63.2298Z" fill="#EDB478"/>
<path d="M99.2199 67.6302C103.401 67.6302 106.79 64.241 106.79 60.0602C106.79 55.8794 103.401 52.4902 99.2199 52.4902C95.0391 52.4902 91.6499 55.8794 91.6499 60.0602C91.6499 64.241 95.0391 67.6302 99.2199 67.6302Z" fill="#EDB478"/>
<path d="M63.741 57.4479L59.3635 53.0857C58.8197 52.5438 57.9396 52.5453 57.3977 53.0891L53.0355 57.4666C52.4936 58.0104 52.4951 58.8905 53.0389 59.4324L57.4164 63.7947C57.9602 64.3365 58.8403 64.335 59.3822 63.7912L63.7445 59.4137C64.2863 58.8699 64.2848 57.9898 63.741 57.4479Z" fill="#EDB478"/>
<path d="M190.537 57.4569L186.429 53.3912C185.816 52.7852 184.829 52.7904 184.223 53.4028L180.171 57.497C179.565 58.1094 179.57 59.0971 180.183 59.7031L184.291 63.7688C184.903 64.3748 185.891 64.3696 186.497 63.7572L190.549 59.663C191.155 59.0506 191.149 58.0629 190.537 57.4569Z" fill="#EDB478"/>
<path d="M154.716 66.8606C158.082 64.1544 158.726 59.3681 156.155 56.1701C153.583 52.9721 148.77 52.5734 145.404 55.2796C142.039 57.9859 141.394 62.7722 143.966 65.9702C146.537 69.1682 151.35 69.5668 154.716 66.8606Z" fill="#EDB478"/>
<path d="M353.42 139.46C360.567 139.554 367.72 139.567 374.88 139.5C380.1 139.454 383.97 139.844 386.49 140.67C394.737 143.377 399.543 149.604 400.91 159.35C400.929 159.482 400.919 159.616 400.881 159.744C400.843 159.871 400.779 159.989 400.691 160.09C400.604 160.19 400.497 160.271 400.376 160.326C400.255 160.381 400.123 160.41 399.99 160.41L330.47 160.43C330.157 160.43 330 160.277 330 159.97L330.02 55.4603C330.02 55.3925 330.034 55.3253 330.06 55.2628C330.086 55.2002 330.124 55.1436 330.173 55.0961C330.221 55.0486 330.279 55.0112 330.342 54.9862C330.405 54.9612 330.472 54.949 330.54 54.9503L352.24 55.0003C352.567 55.007 352.73 55.1703 352.73 55.4903L352.72 138.75C352.72 139.217 352.953 139.454 353.42 139.46Z" fill="#01484E"/>
<path d="M686.59 54.9902H665.39C665.119 54.9902 664.9 55.2096 664.9 55.4802V159.94C664.9 160.211 665.119 160.43 665.39 160.43H686.59C686.861 160.43 687.08 160.211 687.08 159.94V55.4802C687.08 55.2096 686.861 54.9902 686.59 54.9902Z" fill="#01484E"/>
<path d="M729.88 75.4802L729.86 96.5002C729.86 96.6302 729.912 96.7548 730.003 96.8467C730.095 96.9386 730.22 96.9902 730.35 96.9902L773.97 96.9802C774.1 96.9802 774.225 97.0319 774.316 97.1238C774.408 97.2156 774.46 97.3403 774.46 97.4702V116.51C774.46 116.64 774.408 116.765 774.316 116.857C774.225 116.949 774.1 117 773.97 117H730.36C730.23 117 730.105 117.052 730.013 117.144C729.922 117.236 729.87 117.36 729.87 117.49L729.86 139.97C729.86 140.1 729.912 140.225 730.003 140.317C730.095 140.409 730.22 140.46 730.35 140.46L783 140.4C783.13 140.4 783.255 140.452 783.346 140.544C783.438 140.636 783.49 140.76 783.49 140.89V159.93C783.49 160.06 783.438 160.185 783.346 160.277C783.255 160.369 783.13 160.42 783 160.42H707.7C707.57 160.42 707.445 160.369 707.353 160.277C707.262 160.185 707.21 160.06 707.21 159.93L707.22 55.4802C707.22 55.3503 707.272 55.2256 707.363 55.1338C707.455 55.0419 707.58 54.9902 707.71 54.9902H782.25C782.38 54.9902 782.505 55.0419 782.596 55.1338C782.688 55.2256 782.74 55.3503 782.74 55.4802L782.75 74.5102C782.75 74.6402 782.698 74.7648 782.606 74.8567C782.515 74.9486 782.39 75.0002 782.26 75.0002L730.37 74.9902C730.306 74.9902 730.242 75.0029 730.182 75.0275C730.123 75.0522 730.069 75.0882 730.023 75.1337C729.978 75.1792 729.942 75.2333 729.917 75.2927C729.893 75.3522 729.88 75.4159 729.88 75.4802Z" fill="#01484E"/>
<path d="M70.8156 78.6303C73.4161 82.0439 78.1632 82.8007 81.4186 80.3208C84.674 77.8408 85.205 73.0632 82.6045 69.6496C80.0041 66.236 75.257 65.4792 72.0015 67.9591C68.7461 70.4391 68.2152 75.2167 70.8156 78.6303Z" fill="#EDB478"/>
<path d="M175.505 81.5479C178.734 78.6302 179.115 73.7901 176.357 70.7372C173.598 67.6843 168.744 67.5747 165.515 70.4924C162.286 73.4101 161.905 78.2502 164.663 81.3031C167.422 84.356 172.276 84.4656 175.505 81.5479Z" fill="#EDB478"/>
<path d="M236.7 75.3901L226.46 88.4301C226.419 88.4847 226.364 88.5276 226.301 88.5545C226.238 88.5813 226.17 88.5912 226.102 88.5831C226.034 88.575 225.969 88.5492 225.915 88.5083C225.86 88.4674 225.817 88.4128 225.79 88.3501L219.12 73.1701C219.093 73.1076 219.084 73.0393 219.092 72.9719C219.1 72.9045 219.125 72.8403 219.165 72.7858C219.206 72.7313 219.26 72.6882 219.322 72.6609C219.384 72.6336 219.452 72.623 219.52 72.6301L236.44 74.7701C236.507 74.7792 236.571 74.8057 236.625 74.8471C236.679 74.8884 236.721 74.9431 236.747 75.0057C236.773 75.0684 236.783 75.1368 236.775 75.2042C236.766 75.2716 236.74 75.3357 236.7 75.3901Z" fill="#EDB478"/>
<path d="M10.8501 75.8304L26.3201 73.7304C26.478 73.7084 26.6389 73.7283 26.7867 73.7881C26.9345 73.8479 27.064 73.9454 27.1622 74.071C27.2605 74.1966 27.324 74.3457 27.3464 74.5036C27.3689 74.6614 27.3495 74.8224 27.2901 74.9704L21.4501 89.4504C21.3903 89.5983 21.2926 89.728 21.1668 89.8262C21.041 89.9245 20.8916 89.988 20.7336 90.0103C20.5755 90.0326 20.4144 90.0129 20.2663 89.9532C20.1183 89.8936 19.9886 89.796 19.8901 89.6704L10.2601 77.3004C10.1596 77.1745 10.0942 77.0242 10.0707 76.8649C10.0473 76.7055 10.0665 76.5428 10.1265 76.3933C10.1865 76.2438 10.2851 76.113 10.4122 76.0141C10.5394 75.9151 10.6905 75.8518 10.8501 75.8304Z" fill="#EDB478"/>
<path d="M123.74 84.12C126.408 84.12 128.57 81.9575 128.57 79.29C128.57 76.6224 126.408 74.46 123.74 74.46C121.073 74.46 118.91 76.6224 118.91 79.29C118.91 81.9575 121.073 84.12 123.74 84.12Z" fill="#EDB478"/>
<path d="M107.64 86.9802C110.33 86.9802 112.51 84.7999 112.51 82.1102C112.51 79.4206 110.33 77.2402 107.64 77.2402C104.95 77.2402 102.77 79.4206 102.77 82.1102C102.77 84.7999 104.95 86.9802 107.64 86.9802Z" fill="#EDB478"/>
<path d="M136.666 80.0797C135.03 82.3655 135.411 85.4408 137.517 86.9486C139.623 88.4564 142.657 87.8258 144.293 85.5401C145.93 83.2543 145.549 80.179 143.443 78.6712C141.337 77.1634 138.303 77.794 136.666 80.0797Z" fill="#EDB478"/>
<path d="M43.4937 84.2556L38.3595 81.9698C37.5321 81.6014 36.5627 81.9735 36.1943 82.8009L33.8352 88.0995C33.4668 88.927 33.8389 89.8964 34.6664 90.2648L39.8005 92.5506C40.6279 92.919 41.5974 92.5469 41.9658 91.7195L44.3248 86.4209C44.6932 85.5935 44.3211 84.624 43.4937 84.2556Z" fill="#EDB478"/>
<path d="M206.057 82.765L200.265 85.1404C199.606 85.4107 199.291 86.1642 199.561 86.8234L201.959 92.6707C202.23 93.3299 202.983 93.6451 203.642 93.3748L209.434 90.9994C210.093 90.729 210.409 89.9755 210.138 89.3163L207.74 83.469C207.47 82.8098 206.716 82.4946 206.057 82.765Z" fill="#EDB478"/>
<path d="M536.66 102.12C523.85 105.95 520.88 122.95 526.23 133.44C532.7 146.11 549.46 146.95 558.19 136.51C558.253 136.436 558.33 136.376 558.417 136.333C558.504 136.29 558.598 136.266 558.695 136.262C558.791 136.259 558.886 136.275 558.975 136.311C559.064 136.347 559.144 136.401 559.21 136.47L571.64 149.64C571.7 149.703 571.747 149.777 571.778 149.858C571.809 149.939 571.824 150.025 571.821 150.112C571.818 150.198 571.798 150.284 571.762 150.362C571.726 150.441 571.674 150.512 571.61 150.57C553.61 167.15 523.58 165.8 508.92 145.92C503.02 137.93 500.36 126.95 501.7 117.24C506.48 82.6404 546.41 73.1304 571.21 93.7704C571.322 93.8618 571.413 93.9753 571.478 94.1038C571.543 94.2324 571.581 94.3732 571.59 94.5177C571.598 94.6621 571.577 94.807 571.527 94.9434C571.477 95.0798 571.4 95.2047 571.3 95.3104L558.7 108.43C558.467 108.677 558.234 108.67 558 108.41C552.087 101.737 544.973 99.6404 536.66 102.12Z" fill="#01484E"/>
<path d="M491.91 122.276C491.946 132.818 487.624 142.944 479.894 150.425C472.163 157.907 461.658 162.131 450.689 162.17C445.257 162.189 439.875 161.179 434.85 159.199C429.825 157.219 425.256 154.307 421.402 150.629C417.549 146.952 414.487 142.58 412.392 137.765C410.296 132.95 409.208 127.784 409.19 122.564C409.153 112.022 413.476 101.896 421.206 94.4148C428.936 86.9332 439.442 82.7085 450.411 82.6702C455.843 82.6512 461.224 83.6606 466.249 85.6407C471.274 87.6208 475.844 90.5328 479.697 94.2105C483.551 97.8882 486.613 102.26 488.708 107.075C490.804 111.89 491.891 117.056 491.91 122.276ZM450.905 143.747C455.986 143.668 460.824 141.342 464.354 137.282C467.883 133.222 469.816 127.761 469.727 122.099C469.683 119.296 469.144 116.527 468.141 113.953C467.137 111.378 465.689 109.047 463.879 107.092C462.069 105.138 459.932 103.599 457.591 102.562C455.25 101.526 452.75 101.013 450.234 101.053C445.154 101.132 440.316 103.458 436.786 107.518C433.256 111.578 431.323 117.039 431.412 122.701C431.456 125.504 431.995 128.272 432.999 130.847C434.002 133.422 435.45 135.753 437.261 137.708C439.071 139.662 441.207 141.201 443.548 142.238C445.89 143.274 448.389 143.787 450.905 143.747Z" fill="#01484E"/>
<path d="M626.71 149.59C619.317 159.343 609.333 163.256 596.76 161.33C584.433 159.443 577.897 152.816 577.15 141.45C576.26 127.91 585.97 121.46 597.78 118.86C604.833 117.306 611.92 115.89 619.04 114.61C621.99 114.08 624.85 112.75 625.27 109.44C626.37 100.97 615.48 99.4095 609.5 100.07C601.607 100.943 594.9 104.01 589.38 109.27C589.326 109.321 589.262 109.36 589.192 109.385C589.122 109.409 589.048 109.418 588.974 109.412C588.9 109.405 588.829 109.383 588.764 109.346C588.7 109.31 588.644 109.26 588.6 109.2L579.25 96.4695C579.01 96.1362 579.037 95.8262 579.33 95.5395C589.64 85.6995 603.49 82.1495 617.38 83.0995C635 84.3195 647.23 93.1495 647.24 112.27C647.24 121.663 647.237 131.073 647.23 140.5C647.223 148.14 648.603 154.62 651.37 159.94C651.557 160.3 651.447 160.48 651.04 160.48L631.51 160.49C630.83 160.49 630.323 160.196 629.99 159.61C628.23 156.57 627.32 153.29 627.26 149.77C627.247 149.183 627.063 149.123 626.71 149.59ZM610.92 129.45C604.61 130.17 594.77 133.06 599.14 142.06C600.447 144.74 602.74 146.156 606.02 146.31C619.94 146.97 626.303 140.203 625.11 126.01C625.09 125.803 624.983 125.74 624.79 125.82C620.337 127.686 615.713 128.896 610.92 129.45Z" fill="#01484E"/>
<path d="M896.14 127.75C900.74 148.96 924.65 149.13 938.32 137.17C938.646 136.89 938.936 136.927 939.19 137.28L948.17 150.06C948.271 150.201 948.314 150.375 948.29 150.548C948.265 150.721 948.176 150.879 948.04 150.99C941.026 156.71 933.186 160.18 924.52 161.4C894.95 165.55 869.05 147.69 874.28 115.05C877.32 96.13 891.83 83.92 911.26 82.9C926.82 82.09 941.15 89.21 947.41 103.88C950.223 110.46 951.183 118.117 950.29 126.85C950.263 127.137 950.103 127.28 949.81 127.28H896.53C896.471 127.281 896.412 127.294 896.359 127.319C896.306 127.344 896.259 127.381 896.221 127.426C896.184 127.471 896.157 127.523 896.143 127.579C896.129 127.635 896.128 127.694 896.14 127.75ZM911.86 99.35C903.36 100.11 898.5 105.69 896.42 113.58C896.406 113.632 896.404 113.686 896.415 113.739C896.425 113.792 896.448 113.841 896.481 113.884C896.514 113.927 896.556 113.961 896.604 113.985C896.653 114.008 896.706 114.02 896.76 114.02L928.26 114.03C928.379 114.029 928.497 114.002 928.605 113.951C928.713 113.899 928.808 113.824 928.884 113.732C928.959 113.639 929.013 113.53 929.042 113.414C929.071 113.298 929.073 113.177 929.05 113.06C926.943 103.087 921.213 98.5167 911.86 99.35Z" fill="#01484E"/>
<path d="M974.96 126.8C966.81 123.82 960.85 118.69 960.31 109.5C958.89 85.6999 983.47 81.2999 1001.51 83.6599C1008.94 84.6332 1015.69 87.2966 1021.75 91.6499C1022.06 91.8766 1022.13 92.1632 1021.94 92.5099L1014.37 106.63C1014.34 106.695 1014.29 106.753 1014.23 106.797C1014.17 106.842 1014.1 106.873 1014.03 106.888C1013.95 106.903 1013.88 106.902 1013.8 106.885C1013.73 106.868 1013.66 106.836 1013.6 106.79C1007.16 101.797 999.797 99.3932 991.51 99.5799C988.05 99.6599 985.527 100.347 983.94 101.64C979.28 105.47 981.38 110.72 986.75 112.26C992.637 113.953 998.56 115.5 1004.52 116.9C1017.7 119.99 1026.66 129.64 1022.86 143.83C1016.17 168.85 974.12 165.37 958.66 152.82C958.367 152.58 958.307 152.297 958.48 151.97L965.99 137.99C966.032 137.914 966.09 137.849 966.16 137.798C966.23 137.748 966.311 137.713 966.396 137.697C966.48 137.68 966.568 137.683 966.652 137.704C966.735 137.726 966.814 137.765 966.88 137.82C975.294 144.62 984.907 147.157 995.72 145.43C999.914 144.763 1002.09 142.473 1002.26 138.56C1002.45 134.18 996.36 132.56 992.22 131.7C986.347 130.487 980.594 128.853 974.96 126.8Z" fill="#01484E"/>
<path d="M830.9 139.36C830.907 139.375 830.918 139.388 830.932 139.396C830.946 139.405 830.962 139.409 830.979 139.408C830.995 139.407 831.011 139.4 831.023 139.39C831.036 139.38 831.045 139.366 831.05 139.35L848.12 84.8902C848.213 84.5969 848.413 84.4502 848.72 84.4502L870.76 84.5102C870.81 84.5096 870.86 84.5216 870.904 84.5452C870.949 84.5688 870.987 84.6032 871.016 84.6455C871.044 84.6878 871.062 84.7367 871.068 84.788C871.074 84.8394 871.068 84.8916 871.05 84.9402C861.277 111.2 851.51 137.294 841.75 163.22C838.483 171.9 835.783 177.587 833.65 180.28C828.137 187.26 820.267 190.79 810.04 190.87C800.98 190.937 791.953 190.984 782.96 191.01C782.58 191.01 782.41 190.824 782.45 190.45C783.417 181.477 787.88 175.76 795.84 173.3C801.48 171.55 810.1 174.78 813.72 169.46C818.18 162.89 817.45 157.69 814.54 150.05C806.327 128.497 798.057 106.9 789.73 85.2602C789.697 85.1748 789.686 85.0828 789.697 84.9921C789.708 84.9014 789.741 84.8148 789.794 84.7398C789.846 84.6649 789.916 84.6038 789.997 84.5621C790.078 84.5203 790.169 84.4991 790.26 84.5002L812.54 84.4902C812.84 84.4902 813.037 84.6302 813.13 84.9102L830.9 139.36Z" fill="#01484E"/>
<path d="M90.3881 95.0303C92.6298 96.671 95.6925 96.2994 97.2288 94.2003C98.7652 92.1012 98.1933 89.0695 95.9516 87.4288C93.7099 85.7881 90.6471 86.1597 89.1108 88.2588C87.5745 90.3579 88.1464 93.3896 90.3881 95.0303Z" fill="#EDB478"/>
<path d="M56.6245 99.9789C59.5051 103.189 64.3096 103.576 67.3556 100.843C70.4017 98.1103 70.5358 93.2921 67.6552 90.0816C64.7746 86.8712 59.9701 86.4841 56.9241 89.2172C53.8781 91.9503 53.7439 96.7684 56.6245 99.9789Z" fill="#EDB478"/>
<path d="M156.811 95.9485C159.033 94.2439 159.539 91.1749 157.942 89.0936C156.345 87.0124 153.25 86.707 151.028 88.4116C148.807 90.1162 148.3 93.1852 149.897 95.2665C151.494 97.3477 154.59 97.6531 156.811 95.9485Z" fill="#EDB478"/>
<path d="M185.17 105.97C189.351 105.97 192.74 102.581 192.74 98.4001C192.74 94.2193 189.351 90.8301 185.17 90.8301C180.989 90.8301 177.6 94.2193 177.6 98.4001C177.6 102.581 180.989 105.97 185.17 105.97Z" fill="#EDB478"/>
<path d="M101.52 132.53V109.98C101.52 109.631 101.613 109.288 101.788 108.985C101.964 108.683 102.216 108.433 102.52 108.26L122.42 96.9402C122.719 96.7701 123.056 96.6807 123.4 96.6807C123.744 96.6807 124.081 96.7701 124.38 96.9402L144.27 108.34C144.572 108.514 144.822 108.765 144.996 109.067C145.17 109.369 145.261 109.712 145.26 110.06L145.29 132.55C145.29 132.9 145.197 133.243 145.022 133.545C144.846 133.847 144.594 134.097 144.29 134.27L124.53 145.61C124.231 145.78 123.894 145.87 123.55 145.87C123.206 145.87 122.869 145.78 122.57 145.61L102.52 134.25C102.216 134.077 101.964 133.827 101.788 133.525C101.613 133.223 101.52 132.88 101.52 132.53Z" fill="#EDB478"/>
<path d="M80.0947 107.792C81.895 109.915 84.9867 110.251 87.0001 108.544C89.0134 106.837 89.1861 103.731 87.3858 101.608C85.5854 99.4856 82.4938 99.1488 80.4804 100.856C78.467 102.564 78.2943 105.669 80.0947 107.792Z" fill="#EDB478"/>
<path d="M163.11 111.75C165.805 111.75 167.99 109.565 167.99 106.87C167.99 104.175 165.805 101.99 163.11 101.99C160.415 101.99 158.23 104.175 158.23 106.87C158.23 109.565 160.415 111.75 163.11 111.75Z" fill="#EDB478"/>
<path d="M56.4801 128.9C60.683 128.9 64.0901 125.493 64.0901 121.29C64.0901 117.087 60.683 113.68 56.4801 113.68C52.2772 113.68 48.8701 117.087 48.8701 121.29C48.8701 125.493 52.2772 128.9 56.4801 128.9Z" fill="#EDB478"/>
<path d="M16.0001 131.63L0.990052 123.38C0.910677 123.337 0.844368 123.274 0.798154 123.196C0.751939 123.119 0.727539 123.03 0.727539 122.94C0.727539 122.85 0.751939 122.762 0.798154 122.684C0.844368 122.607 0.910677 122.543 0.990052 122.5L16.0901 114.4C16.1663 114.359 16.2521 114.337 16.339 114.339C16.4259 114.341 16.5109 114.365 16.5856 114.409C16.6603 114.454 16.7221 114.517 16.765 114.592C16.8079 114.668 16.8303 114.753 16.8301 114.84L16.7401 131.2C16.7386 131.286 16.7149 131.371 16.6713 131.445C16.6278 131.519 16.5658 131.581 16.4913 131.624C16.4169 131.667 16.3326 131.69 16.2465 131.692C16.1605 131.693 16.0756 131.672 16.0001 131.63Z" fill="#EDB478"/>
<path d="M230.61 131.07L230.87 115.14C230.873 115.017 230.908 114.896 230.972 114.79C231.036 114.683 231.126 114.595 231.233 114.534C231.341 114.473 231.462 114.44 231.586 114.439C231.71 114.439 231.832 114.47 231.94 114.53L246.04 122.37C246.152 122.433 246.246 122.524 246.312 122.635C246.377 122.746 246.411 122.872 246.411 123C246.411 123.129 246.377 123.255 246.312 123.366C246.246 123.477 246.152 123.568 246.04 123.63L231.68 131.71C231.57 131.772 231.445 131.803 231.319 131.801C231.192 131.799 231.069 131.764 230.96 131.699C230.852 131.634 230.762 131.542 230.701 131.432C230.639 131.321 230.608 131.197 230.61 131.07Z" fill="#EDB478"/>
<path d="M189.55 131.07C193.737 131.07 197.13 127.676 197.13 123.49C197.13 119.304 193.737 115.91 189.55 115.91C185.364 115.91 181.97 119.304 181.97 123.49C181.97 127.676 185.364 131.07 189.55 131.07Z" fill="#EDB478"/>
<path d="M80.1498 126.42C82.8174 126.42 84.9798 124.257 84.9798 121.59C84.9798 118.922 82.8174 116.76 80.1498 116.76C77.4823 116.76 75.3198 118.922 75.3198 121.59C75.3198 124.257 77.4823 126.42 80.1498 126.42Z" fill="#EDB478"/>
<path d="M35.7034 117.493L28.6238 117.567C28.1102 117.573 27.6982 117.994 27.7036 118.507L27.7773 125.547C27.7827 126.06 28.2034 126.472 28.717 126.467L35.7966 126.393C36.3102 126.387 36.7222 125.967 36.7168 125.453L36.6431 118.413C36.6377 117.9 36.217 117.488 35.7034 117.493Z" fill="#EDB478"/>
<path d="M214.668 117.586L208.289 117.675C207.549 117.685 206.958 118.293 206.968 119.033L207.053 125.153C207.064 125.893 207.672 126.484 208.412 126.474L214.791 126.385C215.531 126.374 216.123 125.766 216.112 125.026L216.027 118.907C216.017 118.167 215.408 117.575 214.668 117.586Z" fill="#EDB478"/>
<path d="M165.88 127.93C168.569 127.93 170.75 125.75 170.75 123.06C170.75 120.371 168.569 118.19 165.88 118.19C163.19 118.19 161.01 120.371 161.01 123.06C161.01 125.75 163.19 127.93 165.88 127.93Z" fill="#EDB478"/>
<path d="M83.0502 142.66C85.7288 142.66 87.9002 140.489 87.9002 137.81C87.9002 135.131 85.7288 132.96 83.0502 132.96C80.3716 132.96 78.2002 135.131 78.2002 137.81C78.2002 140.489 80.3716 142.66 83.0502 142.66Z" fill="#EDB478"/>
<path d="M159.388 143.41C161.558 145.099 164.635 144.776 166.26 142.689C167.885 140.602 167.443 137.54 165.272 135.85C163.102 134.161 160.025 134.483 158.4 136.571C156.775 138.658 157.217 141.72 159.388 143.41Z" fill="#EDB478"/>
<path d="M61.06 153.92C65.2573 153.92 68.66 150.517 68.66 146.32C68.66 142.122 65.2573 138.72 61.06 138.72C56.8626 138.72 53.46 142.122 53.46 146.32C53.46 150.517 56.8626 153.92 61.06 153.92Z" fill="#EDB478"/>
<path d="M178.686 154.389C181.724 157.459 186.548 157.611 189.46 154.729C192.373 151.846 192.272 147.021 189.234 143.951C186.196 140.881 181.372 140.729 178.459 143.612C175.546 146.494 175.648 151.32 178.686 154.389Z" fill="#EDB478"/>
<path d="M94.784 156.035C97.0816 154.444 97.7334 151.406 96.24 149.25C94.7466 147.093 91.6734 146.634 89.3759 148.225C87.0783 149.816 86.4265 152.854 87.9199 155.011C89.4133 157.167 92.4865 157.626 94.784 156.035Z" fill="#EDB478"/>
<path d="M149.666 156.611C151.669 158.505 154.753 158.495 156.555 156.589C158.358 154.683 158.196 151.602 156.193 149.709C154.191 147.815 151.107 147.825 149.304 149.732C147.502 151.638 147.664 154.718 149.666 156.611Z" fill="#EDB478"/>
<path d="M39.9575 150.876L34.3818 153.3C33.6626 153.613 33.3331 154.449 33.6458 155.168L36.0543 160.707C36.367 161.427 37.2035 161.756 37.9227 161.443L43.4984 159.019C44.2176 158.706 44.5472 157.87 44.2344 157.151L41.826 151.612C41.5133 150.892 40.6767 150.563 39.9575 150.876Z" fill="#EDB478"/>
<path d="M209.23 153.851L203.48 151.327C202.797 151.027 202.001 151.338 201.701 152.02L199.177 157.771C198.877 158.453 199.188 159.25 199.87 159.549L205.621 162.074C206.303 162.373 207.1 162.063 207.399 161.38L209.924 155.63C210.223 154.947 209.913 154.151 209.23 153.851Z" fill="#EDB478"/>
<path d="M10.1001 170.12L20.4901 155.94C20.5561 155.849 20.6448 155.778 20.7473 155.734C20.8497 155.689 20.9621 155.673 21.0731 155.686C21.184 155.699 21.2894 155.742 21.3785 155.809C21.4676 155.877 21.5371 155.966 21.5801 156.07L28.3501 172.29C28.3931 172.392 28.4086 172.503 28.3948 172.613C28.381 172.723 28.3385 172.827 28.2716 172.915C28.2047 173.004 28.1157 173.073 28.0136 173.115C27.9115 173.158 27.7999 173.174 27.6901 173.16L10.5301 171.12C10.4208 171.106 10.3168 171.064 10.2287 170.998C10.1406 170.932 10.0713 170.844 10.0278 170.743C9.98429 170.642 9.96807 170.531 9.98075 170.422C9.99343 170.312 10.0346 170.208 10.1001 170.12Z" fill="#EDB478"/>
<path d="M236.65 170.08L221.22 172.41C221.055 172.435 220.887 172.416 220.732 172.355C220.577 172.293 220.441 172.192 220.338 172.06C220.235 171.929 220.169 171.773 220.147 171.607C220.124 171.442 220.146 171.274 220.21 171.12L226.16 156.69C226.223 156.538 226.324 156.405 226.455 156.304C226.585 156.204 226.739 156.139 226.902 156.117C227.065 156.095 227.231 156.116 227.383 156.178C227.536 156.24 227.669 156.34 227.77 156.47L237.25 168.57C237.352 168.699 237.418 168.853 237.441 169.016C237.465 169.179 237.445 169.345 237.384 169.498C237.324 169.65 237.224 169.785 237.095 169.887C236.966 169.989 236.813 170.056 236.65 170.08Z" fill="#EDB478"/>
<path d="M108.458 165.384C110.7 163.688 111.216 160.593 109.61 158.469C108.004 156.346 104.885 156 102.643 157.695C100.401 159.391 99.8847 162.487 101.49 164.61C103.096 166.733 106.216 167.08 108.458 165.384Z" fill="#EDB478"/>
<path d="M138.49 167.26C141.196 167.26 143.39 165.066 143.39 162.36C143.39 159.654 141.196 157.46 138.49 157.46C135.784 157.46 133.59 159.654 133.59 162.36C133.59 165.066 135.784 167.26 138.49 167.26Z" fill="#EDB478"/>
<path d="M122.33 170.11C125.031 170.11 127.22 167.921 127.22 165.22C127.22 162.519 125.031 160.33 122.33 160.33C119.629 160.33 117.44 162.519 117.44 165.22C117.44 167.921 119.629 170.11 122.33 170.11Z" fill="#EDB478"/>
<path d="M80.8637 163.334L80.0635 162.551C77.4237 159.966 73.188 160.01 70.6029 162.65L69.2176 164.065C66.6325 166.704 66.6769 170.94 69.3167 173.525L70.1169 174.309C72.7567 176.894 76.9924 176.85 79.5775 174.21L80.9628 172.795C83.5479 170.155 83.5035 165.92 80.8637 163.334Z" fill="#EDB478"/>
<path d="M163.237 174.308C165.686 177.872 170.413 178.877 173.795 176.553C177.177 174.228 177.933 169.455 175.483 165.891C173.034 162.328 168.307 161.323 164.925 163.647C161.543 165.971 160.787 170.744 163.237 174.308Z" fill="#EDB478"/>
<path d="M100.846 188.689C104.123 185.859 104.624 181.068 101.965 177.987C99.305 174.906 94.4919 174.701 91.2141 177.531C87.9364 180.36 87.4354 185.151 90.095 188.232C92.7546 191.314 97.5678 191.518 100.846 188.689Z" fill="#EDB478"/>
<path d="M146.96 191.92C151.146 191.92 154.54 188.526 154.54 184.34C154.54 180.153 151.146 176.76 146.96 176.76C142.774 176.76 139.38 180.153 139.38 184.34C139.38 188.526 142.774 191.92 146.96 191.92Z" fill="#EDB478"/>
<path d="M57.6411 180.269L53.24 184.579C52.7191 185.089 52.7104 185.925 53.2204 186.446L57.5723 190.89C58.0824 191.411 58.9181 191.42 59.439 190.91L63.8401 186.6C64.361 186.09 64.3698 185.254 63.8597 184.733L59.5078 180.289C58.9977 179.768 58.162 179.759 57.6411 180.269Z" fill="#EDB478"/>
<path d="M190.544 184.413L186.207 180.181C185.638 179.625 184.726 179.636 184.171 180.205L179.911 184.571C179.355 185.14 179.366 186.052 179.936 186.607L184.273 190.84C184.842 191.395 185.754 191.384 186.309 190.815L190.569 186.449C191.125 185.88 191.114 184.968 190.544 184.413Z" fill="#EDB478"/>
<path d="M121.91 196.35C126.074 196.35 129.45 192.974 129.45 188.81C129.45 184.645 126.074 181.27 121.91 181.27C117.746 181.27 114.37 184.645 114.37 188.81C114.37 192.974 117.746 196.35 121.91 196.35Z" fill="#EDB478"/>
<path d="M37.28 209.08L41.26 192.87C41.2839 192.774 41.3331 192.686 41.4023 192.614C41.4716 192.543 41.5584 192.492 41.6541 192.466C41.7497 192.439 41.8506 192.439 41.9465 192.464C42.0425 192.489 42.1299 192.54 42.2 192.61L53.82 204.29C53.8878 204.359 53.9367 204.444 53.9618 204.538C53.987 204.631 53.9875 204.729 53.9633 204.823C53.9391 204.917 53.8911 205.002 53.8239 205.072C53.7568 205.142 53.6727 205.193 53.58 205.22L37.98 209.75C37.8857 209.777 37.7859 209.779 37.6906 209.756C37.5953 209.733 37.5078 209.684 37.4369 209.617C37.366 209.549 37.3142 209.463 37.2867 209.369C37.2591 209.275 37.2568 209.175 37.28 209.08Z" fill="#EDB478"/>
<path d="M209.72 209.75L193.25 205.74C193.157 205.719 193.07 205.673 193.001 205.607C192.932 205.541 192.881 205.457 192.856 205.365C192.83 205.272 192.83 205.175 192.855 205.082C192.881 204.99 192.931 204.906 193 204.84L205.18 193.05C205.246 192.986 205.328 192.94 205.417 192.917C205.506 192.894 205.6 192.895 205.688 192.919C205.777 192.943 205.858 192.99 205.923 193.055C205.989 193.12 206.036 193.201 206.06 193.29L210.35 209.09C210.375 209.179 210.376 209.272 210.354 209.362C210.332 209.451 210.287 209.533 210.223 209.6C210.16 209.666 210.08 209.715 209.992 209.741C209.903 209.768 209.81 209.771 209.72 209.75Z" fill="#EDB478"/>
<path d="M92.0812 202.087L85.8038 199.525C85.2925 199.317 84.7088 199.562 84.5001 200.073L81.9308 206.369C81.7221 206.881 81.9675 207.464 82.4788 207.673L88.7562 210.235C89.2675 210.443 89.8512 210.198 90.0599 209.687L92.6292 203.391C92.8379 202.879 92.5925 202.296 92.0812 202.087Z" fill="#EDB478"/>
<path d="M156.617 199.876L151.482 202.109C150.621 202.484 150.226 203.485 150.601 204.346L152.826 209.463C153.2 210.324 154.202 210.719 155.063 210.344L160.198 208.111C161.059 207.737 161.454 206.736 161.079 205.875L158.854 200.757C158.48 199.896 157.478 199.502 156.617 199.876Z" fill="#EDB478"/>
<path d="M124.999 207.409L119 207.451C118.204 207.456 117.564 208.106 117.57 208.901L117.611 214.781C117.616 215.576 118.265 216.216 119.061 216.211L125.061 216.169C125.856 216.163 126.496 215.514 126.49 214.719L126.449 208.839C126.444 208.044 125.795 207.403 124.999 207.409Z" fill="#EDB478"/>
<path d="M171.2 237.23L156.41 226.15C156.363 226.115 156.326 226.068 156.303 226.015C156.28 225.961 156.272 225.902 156.279 225.844C156.286 225.786 156.308 225.731 156.344 225.685C156.379 225.638 156.426 225.602 156.48 225.58L173.53 218.48C173.583 218.457 173.641 218.448 173.699 218.454C173.757 218.461 173.812 218.482 173.858 218.517C173.905 218.551 173.942 218.597 173.965 218.651C173.988 218.704 173.997 218.762 173.99 218.82L171.72 237C171.713 237.057 171.692 237.111 171.658 237.157C171.624 237.204 171.578 237.24 171.526 237.263C171.473 237.287 171.415 237.296 171.358 237.29C171.301 237.284 171.247 237.263 171.2 237.23Z" fill="#EDB478"/>
<path d="M75.4399 219.63L90.8899 225.66C90.9895 225.701 91.0766 225.767 91.1424 225.852C91.2082 225.937 91.2504 226.038 91.2646 226.144C91.2788 226.251 91.2646 226.359 91.2234 226.459C91.1822 226.558 91.1154 226.645 91.0299 226.71L77.8499 236.77C77.7653 236.834 77.6656 236.874 77.5605 236.887C77.4555 236.901 77.3489 236.887 77.251 236.846C77.1532 236.806 77.0675 236.741 77.0024 236.657C76.9374 236.574 76.8951 236.475 76.8799 236.37L74.6199 220.28C74.6062 220.176 74.6198 220.069 74.6594 219.972C74.699 219.874 74.7632 219.788 74.8458 219.723C74.9284 219.657 75.0265 219.614 75.1306 219.598C75.2348 219.582 75.3413 219.593 75.4399 219.63Z" fill="#EDB478"/>
<path d="M132.83 230.47L124.15 246.03C124.123 246.078 124.084 246.117 124.036 246.145C123.989 246.173 123.935 246.187 123.88 246.187C123.825 246.187 123.771 246.173 123.723 246.145C123.676 246.117 123.637 246.078 123.61 246.03L114.72 230.6C114.692 230.553 114.676 230.5 114.675 230.445C114.674 230.391 114.688 230.337 114.714 230.29C114.74 230.242 114.779 230.202 114.825 230.174C114.872 230.146 114.925 230.131 114.98 230.13L132.56 230.01C132.614 230.01 132.666 230.024 132.713 230.051C132.76 230.078 132.799 230.116 132.826 230.163C132.853 230.209 132.868 230.262 132.868 230.316C132.869 230.37 132.856 230.423 132.83 230.47Z" fill="#EDB478"/>
</g>
<defs>
<clipPath id="clip0_397_523">
<rect width="1024" height="247" fill="white"/>
</clipPath>
</defs>
</svg>
